<svg xmlns="http://www.w3.org/2000/svg" version="1.1" xmlns:xlink="http://www.w3.org/1999/xlink" xmlns:svgjs="http://svgjs.dev/svgjs" width="1500" height="375" viewBox="0 0 1500 375"><g transform="matrix(1,0,0,1,-0.9090909090911055,-0.16239957717198195)"><svg viewBox="0 0 396 99" data-background-color="#000000" preserveAspectRatio="xMidYMid meet" height="375" width="1500" xmlns="http://www.w3.org/2000/svg" xmlns:xlink="http://www.w3.org/1999/xlink"><g id="tight-bounds" transform="matrix(1,0,0,1,0.24000000000003752,0.042873488373402324)"><svg viewBox="0 0 395.5199999999999 98.9142530232532" height="98.9142530232532" width="395.5199999999999"><g><svg viewBox="0 0 590.5292733571677 147.68345965435057" height="98.9142530232532" width="395.5199999999999"><g transform="matrix(1,0,0,1,0,20.410666276397222)"><svg viewBox="0 0 395.52 106.86212710155613" height="106.86212710155613" width="395.52"><g id="textblocktransform"><svg viewBox="0 0 395.52 106.86212710155613" height="106.86212710155613" width="395.52" id="textblock"><g><svg viewBox="0 0 395.52 73.34617283950617" height="73.34617283950617" width="395.52"><g transform="matrix(1,0,0,1,0,0)"><svg width="395.52" viewBox="0.75 -35.55 201.63 36.05" height="73.34617283950617" data-palette-color="url(#40351f49-e0b1-4176-a626-ce40ac40fb34)"><g class="wordmark-text-0" data-fill-palette-color="primary" id="text-0"></g></svg></g></svg></g><g transform="matrix(1,0,0,1,163.310208,90.66144393876543)"><svg viewBox="0 0 232.209792 16.200683162790696" height="16.200683162790696" width="232.209792"><g transform="matrix(1,0,0,1,0,0)"><svg width="232.209792" viewBox="1.75 -36 644.94 45" height="16.200683162790696" data-palette-color="url(#442dad4b-711d-4597-acc9-62f2b826ba9a)"></svg></g></svg></g></svg></g></svg></g><g transform="matrix(1,0,0,1,412.8352710992592,0)"><svg viewBox="0 0 177.6940022579084 147.68345965435057" height="147.68345965435057" width="177.6940022579084"><g><svg xmlns="http://www.w3.org/2000/svg" xmlns:xlink="http://www.w3.org/1999/xlink" version="1.1" x="0" y="0" viewBox="5 12.6 90 74.80000000000001" enable-background="new 0 0 100 100" xml:space="preserve" height="147.68345965435057" width="177.6940022579084" class="icon-icon-0" data-fill-palette-color="accent" id="icon-0"></svg></g></svg></g></svg></g><defs></defs><mask id="0285b680-e215-4e5e-9bb5-9c5a58bdba0b"><g id="SvgjsG1502"><svg viewBox="0 0 395.5199999999999 98.9142530232532" height="98.9142530232532" width="395.5199999999999"><g><svg viewBox="0 0 590.5292733571677 147.68345965435057" height="98.9142530232532" width="395.5199999999999"><g transform="matrix(1,0,0,1,0,20.410666276397222)"><svg viewBox="0 0 395.52 106.86212710155613" height="106.86212710155613" width="395.52"><g id="SvgjsG1501"><svg viewBox="0 0 395.52 106.86212710155613" height="106.86212710155613" width="395.52" id="SvgjsSvg1500"><g><svg viewBox="0 0 395.52 73.34617283950617" height="73.34617283950617" width="395.52"><g transform="matrix(1,0,0,1,0,0)"><svg width="395.52" viewBox="0.75 -35.55 201.63 36.05" height="73.34617283950617" data-palette-color="url(#40351f49-e0b1-4176-a626-ce40ac40fb34)"><g class="wordmark-text-0" data-fill-palette-color="primary" id="SvgjsG1499"><path d="M0.75-34.05L0.75-35 15.45-35Q23-35 26.7-32.83 30.4-30.65 30.4-25.05L30.4-25.05Q30.4-18.85 25.9-16.5L25.9-16.5Q21.7-14.35 14.15-14.35L14.15-14.35 13.75-14.35 13.75-0.95 20-0.95 20 0 0.75 0 0.75-0.95 4-0.95 4-34.05 0.75-34.05ZM15.1-34.05L13.75-34.05 13.75-15.3 14.8-15.3Q17.8-15.3 18.95-17.35 20.1-19.4 20.1-24L20.1-24 20.1-26.4Q20.1-30.65 19.03-32.35 17.95-34.05 15.1-34.05L15.1-34.05ZM56.75-15.45L56.75-15.45 56.75-19.15Q56.75-28.3 55.85-30.7L55.85-30.7Q54.85-33.45 53-34.1L53-34.1Q51.95-34.5 50.45-34.5 48.95-34.5 47.87-34.1 46.8-33.7 46.1-32.7 45.4-31.7 44.97-30.6 44.55-29.5 44.3-27.5L44.3-27.5Q44-24.6 44-18.95L44-18.95 44-15.35Q44-9.25 44.47-6.68 44.95-4.1 45.65-3L45.65-3Q47.2-0.55 50.45-0.55L50.45-0.55Q54.4-0.55 55.57-3.88 56.75-7.2 56.75-15.45ZM50.35 0.5Q42 0.5 37.87-4.03 33.75-8.55 33.75-17.13 33.75-25.7 38.17-30.63 42.6-35.55 50.7-35.55 58.8-35.55 62.92-30.88 67.05-26.2 67.05-17.6 67.05-9 62.87-4.25 58.7 0.5 50.35 0.5ZM71.39-35L100.89-35 101.4-22.45 100.44-22.45Q98.25-29.1 96.55-31.53 94.84-33.95 91.64-33.95L91.64-33.95 91.05-33.95 91.05-1.05 95.3-1.05 95.3 0 77.05 0 77.05-1.05 81.3-1.05 81.3-33.95 80.64-33.95Q77.44-33.95 75.69-31.43 73.94-28.9 71.84-22.45L71.84-22.45 70.89-22.45 71.39-35ZM121.29-0.95L124.84-0.95 121.19-11.75 111.29-11.75 107.44-0.95 111.19-0.95 111.19 0 103.54 0 103.54-0.95 105.89-0.95 118.64-35.3 122.74-35.3 135.34-0.95 137.64-0.95 137.64 0 121.29 0 121.29-0.95ZM120.79-12.85L116.44-25.95 111.74-12.85 120.79-12.85ZM144.51 0.5Q142.34 0.5 141.26-0.78 140.19-2.05 140.19-3.88 140.19-5.7 141.31-6.95 142.44-8.2 144.49-8.2 146.54-8.2 147.74-7.15 148.94-6.1 148.94-4 148.94-1.9 147.81-0.7 146.69 0.5 144.51 0.5ZM169.24-0.95L172.79-0.95 169.14-11.75 159.24-11.75 155.39-0.95 159.14-0.95 159.14 0 151.49 0 151.49-0.95 153.84-0.95 166.59-35.3 170.69-35.3 183.29-0.95 185.59-0.95 185.59 0 169.24 0 169.24-0.95ZM168.74-12.85L164.39-25.95 159.69-12.85 168.74-12.85ZM187.13-34.05L187.13-35 202.38-35 202.38-34.05 199.63-34.05 199.63-0.95 202.38-0.95 202.38 0 187.13 0 187.13-0.95 189.88-0.95 189.88-34.05 187.13-34.05Z" fill="white"></path></g></svg></g></svg></g><g transform="matrix(1,0,0,1,163.310208,90.66144393876543)"><svg viewBox="0 0 232.209792 16.200683162790696" height="16.200683162790696" width="232.209792"><g transform="matrix(1,0,0,1,0,0)"><svg width="232.209792" viewBox="1.75 -36 644.94 45" height="16.200683162790696" data-palette-color="url(#442dad4b-711d-4597-acc9-62f2b826ba9a)"><path d="M9.25-8.25L9.25-8.25Q9.25-3.5 15-3.5L15-3.5 22-3.5 22-13 15-13Q9.25-13 9.25-8.25ZM15-16.5L22-16.5Q22-20.1 20.13-21.8 18.25-23.5 15.25-23.5L15.25-23.5Q13-23.5 10.85-22.83 8.7-22.15 7-21L7-21 5.25-24Q6.35-24.75 7.68-25.3 9-25.85 10.4-26.23 11.8-26.6 13.18-26.8 14.55-27 15.75-27L15.75-27Q18.95-27 21.4-26.25 23.85-25.5 25.55-24.1 27.25-22.7 28.13-20.78 29-18.85 29-16.5L29-16.5 29 0 15 0Q8.2 0 4.98-2.05 1.75-4.1 1.75-8.25L1.75-8.25Q1.75-12.4 4.98-14.45 8.2-16.5 15-16.5L15-16.5ZM42.75-35L42.75 0 35.75 0 35.75-35 42.75-35ZM56.75-35L56.75 0 49.75 0 49.75-35 56.75-35ZM83.49-9.5L83.49-22.5 78.74-22.5 78.74-26 83.49-26 83.49-34 90.49-34 90.49-26 98.24-26 98.24-22.5 90.49-22.5 90.49-9.5Q90.49-7.6 90.92-6.28 91.34-4.95 92.07-4.13 92.79-3.3 93.74-2.9 94.69-2.5 95.74-2.5L95.74-2.5Q97.24-2.5 98.64-2.98 100.04-3.45 100.99-4L100.99-4 102.49-0.75Q100.99 0 99.07 0.5 97.14 1 95.24 1L95.24 1Q89.59 1 86.54-1.8 83.49-4.6 83.49-9.5L83.49-9.5ZM118.99-2.25L118.99-2.25Q120.59-2.25 121.99-2.85 123.39-3.45 124.44-4.73 125.49-6 126.11-8.05 126.74-10.1 126.74-13L126.74-13Q126.74-15.9 126.11-17.95 125.49-20 124.44-21.28 123.39-22.55 121.99-23.15 120.59-23.75 118.99-23.75L118.99-23.75Q117.39-23.75 115.99-23.15 114.59-22.55 113.54-21.28 112.49-20 111.86-17.95 111.24-15.9 111.24-13L111.24-13Q111.24-10.1 111.86-8.05 112.49-6 113.54-4.73 114.59-3.45 115.99-2.85 117.39-2.25 118.99-2.25ZM118.99-27L118.99-27Q122.34-27 125.16-26.08 127.99-25.15 129.99-23.38 131.99-21.6 133.11-18.98 134.24-16.35 134.24-13L134.24-13Q134.24-9.6 133.11-7 131.99-4.4 129.99-2.63 127.99-0.85 125.16 0.08 122.34 1 118.99 1L118.99 1Q115.59 1 112.79 0.08 109.99-0.85 107.99-2.63 105.99-4.4 104.86-7 103.74-9.6 103.74-13L103.74-13Q103.74-16.35 104.86-18.98 105.99-21.6 107.99-23.38 109.99-25.15 112.79-26.08 115.59-27 118.99-27ZM153.99-2.25L153.99-2.25Q155.59-2.25 156.99-2.85 158.39-3.45 159.44-4.73 160.49-6 161.11-8.05 161.74-10.1 161.74-13L161.74-13Q161.74-15.9 161.11-17.95 160.49-20 159.44-21.28 158.39-22.55 156.99-23.15 155.59-23.75 153.99-23.75L153.99-23.75Q152.39-23.75 150.99-23.15 149.59-22.55 148.54-21.28 147.49-20 146.86-17.95 146.24-15.9 146.24-13L146.24-13Q146.24-10.1 146.86-8.05 147.49-6 148.54-4.73 149.59-3.45 150.99-2.85 152.39-2.25 153.99-2.25ZM153.99-27L153.99-27Q157.34-27 160.16-26.08 162.99-25.15 164.99-23.38 166.99-21.6 168.11-18.98 169.24-16.35 169.24-13L169.24-13Q169.24-9.6 168.11-7 166.99-4.4 164.99-2.63 162.99-0.85 160.16 0.08 157.34 1 153.99 1L153.99 1Q150.59 1 147.79 0.08 144.99-0.85 142.99-2.63 140.99-4.4 139.86-7 138.74-9.6 138.74-13L138.74-13Q138.74-16.35 139.86-18.98 140.99-21.6 142.99-23.38 144.99-25.15 147.79-26.08 150.59-27 153.99-27ZM181.98-35L181.98 0 174.98 0 174.98-35 181.98-35ZM194.98-20.5L194.98-20.5Q194.98-19.35 196.01-18.4 197.03-17.45 199.48-16.75L199.48-16.75 207.23-14.5Q210.83-13.45 212.78-11.65 214.73-9.85 214.73-7L214.73-7Q214.73-5.2 213.98-3.73 213.23-2.25 211.53-1.2 209.83-0.15 207.13 0.43 204.43 1 200.48 1L200.48 1Q198.43 1 196.46 0.7 194.48 0.4 192.71-0.13 190.93-0.65 189.48-1.33 188.03-2 186.98-2.75L186.98-2.75 188.98-5.75Q191.08-4.45 193.91-3.48 196.73-2.5 200.48-2.5L200.48-2.5Q204.23-2.5 205.73-3.5 207.23-4.5 207.23-6L207.23-6Q207.23-7.15 206.18-8.08 205.13-9 202.48-9.75L202.48-9.75 194.73-12Q191.53-12.95 189.51-14.73 187.48-16.5 187.48-19.5L187.48-19.5Q187.48-21.1 188.21-22.48 188.93-23.85 190.48-24.85 192.03-25.85 194.43-26.43 196.83-27 200.23-27L200.23-27Q204.38-27 207.76-25.88 211.13-24.75 213.23-23.25L213.23-23.25 211.23-20.25Q209.18-21.55 206.58-22.53 203.98-23.5 200.23-23.5L200.23-23.5Q197.58-23.5 196.28-22.65 194.98-21.8 194.98-20.5ZM244.48-25.5L244.48 0 237.48 0 237.48-25.5 244.48-25.5ZM244.73-32.25L244.73-32.25Q244.73-30.75 243.7-29.63 242.68-28.5 240.98-28.5L240.98-28.5Q239.28-28.5 238.25-29.63 237.23-30.75 237.23-32.25L237.23-32.25Q237.23-33.75 238.25-34.88 239.28-36 240.98-36L240.98-36Q242.63-36 243.68-34.88 244.73-33.75 244.73-32.25ZM279.22-15.75L279.22 0 272.22 0 272.22-15.75Q272.22-19.35 270.42-20.93 268.62-22.5 265.22-22.5L265.22-22.5 258.72-22.5 258.72 0 251.72 0 251.72-26 265.22-26Q272.37-26 275.8-23.43 279.22-20.85 279.22-15.75L279.22-15.75ZM317.47-2.25L317.47-2.25Q319.07-2.25 320.47-2.85 321.87-3.45 322.92-4.73 323.97-6 324.59-8.05 325.22-10.1 325.22-13L325.22-13Q325.22-15.9 324.59-17.95 323.97-20 322.92-21.28 321.87-22.55 320.47-23.15 319.07-23.75 317.47-23.75L317.47-23.75Q315.87-23.75 314.47-23.15 313.07-22.55 312.02-21.28 310.97-20 310.34-17.95 309.72-15.9 309.72-13L309.72-13Q309.72-10.1 310.34-8.05 310.97-6 312.02-4.73 313.07-3.45 314.47-2.85 315.87-2.25 317.47-2.25ZM317.47-27L317.47-27Q320.82-27 323.64-26.08 326.47-25.15 328.47-23.38 330.47-21.6 331.59-18.98 332.72-16.35 332.72-13L332.72-13Q332.72-9.6 331.59-7 330.47-4.4 328.47-2.63 326.47-0.85 323.64 0.08 320.82 1 317.47 1L317.47 1Q314.07 1 311.27 0.08 308.47-0.85 306.47-2.63 304.47-4.4 303.34-7 302.22-9.6 302.22-13L302.22-13Q302.22-16.35 303.34-18.98 304.47-21.6 306.47-23.38 308.47-25.15 311.27-26.08 314.07-27 317.47-27ZM365.97-15.75L365.97 0 358.97 0 358.97-15.75Q358.97-19.35 357.17-20.93 355.37-22.5 351.97-22.5L351.97-22.5 345.47-22.5 345.47 0 338.47 0 338.47-26 351.97-26Q359.12-26 362.54-23.43 365.97-20.85 365.97-15.75L365.97-15.75ZM387.71-2.5L387.71-2.5Q390.16-2.5 392.29-3.35 394.41-4.2 396.46-5.75L396.46-5.75 398.46-2.75Q397.51-1.9 396.24-1.2 394.96-0.5 393.49-0.03 392.01 0.45 390.41 0.73 388.81 1 387.21 1L387.21 1Q383.66 1 380.74 0.08 377.81-0.85 375.76-2.63 373.71-4.4 372.59-7 371.46-9.6 371.46-13L371.46-13Q371.46-16.35 372.54-18.98 373.61-21.6 375.54-23.38 377.46-25.15 380.11-26.08 382.76-27 385.96-27L385.96-27Q388.96-27 391.61-26.1 394.26-25.2 396.21-23.48 398.16-21.75 399.31-19.3 400.46-16.85 400.46-13.75L400.46-13.75 400.46-10.25 379.11-10.25Q379.71-6.1 381.99-4.3 384.26-2.5 387.71-2.5ZM385.96-23.75L385.96-23.75Q384.51-23.75 383.26-23.2 382.01-22.65 381.09-21.45 380.16-20.25 379.59-18.35 379.01-16.45 378.96-13.75L378.96-13.75 392.96-13.75Q392.96-16.35 392.36-18.25 391.76-20.15 390.79-21.38 389.81-22.6 388.54-23.18 387.26-23.75 385.96-23.75ZM436.96-22.5L430.71-22.5 430.71-3.5 436.96-3.5Q438.66-3.5 440.08-4.03 441.51-4.55 442.53-5.7 443.56-6.85 444.13-8.65 444.71-10.45 444.71-13L444.71-13Q444.71-15.55 444.13-17.35 443.56-19.15 442.53-20.3 441.51-21.45 440.08-21.98 438.66-22.5 436.96-22.5L436.96-22.5ZM423.71-26L436.96-26Q440.41-26 443.23-25.1 446.06-24.2 448.06-22.5 450.06-20.8 451.13-18.4 452.21-16 452.21-13L452.21-13Q452.21-10 451.13-7.6 450.06-5.2 448.06-3.5 446.06-1.8 443.23-0.9 440.41 0 436.96 0L436.96 0 430.71 0 430.71 9 423.71 9 423.71-26ZM464.96-35L464.96 0 457.96 0 457.96-35 464.96-35ZM477.7-8.25L477.7-8.25Q477.7-3.5 483.45-3.5L483.45-3.5 490.45-3.5 490.45-13 483.45-13Q477.7-13 477.7-8.25ZM483.45-16.5L490.45-16.5Q490.45-20.1 488.58-21.8 486.7-23.5 483.7-23.5L483.7-23.5Q481.45-23.5 479.3-22.83 477.15-22.15 475.45-21L475.45-21 473.7-24Q474.8-24.75 476.13-25.3 477.45-25.85 478.85-26.23 480.25-26.6 481.63-26.8 483-27 484.2-27L484.2-27Q487.4-27 489.85-26.25 492.3-25.5 494-24.1 495.7-22.7 496.58-20.78 497.45-18.85 497.45-16.5L497.45-16.5 497.45 0 483.45 0Q476.65 0 473.43-2.05 470.2-4.1 470.2-8.25L470.2-8.25Q470.2-12.4 473.43-14.45 476.65-16.5 483.45-16.5L483.45-16.5ZM505.45-9.5L505.45-22.5 500.7-22.5 500.7-26 505.45-26 505.45-34 512.45-34 512.45-26 520.2-26 520.2-22.5 512.45-22.5 512.45-9.5Q512.45-7.6 512.88-6.28 513.3-4.95 514.03-4.13 514.75-3.3 515.7-2.9 516.65-2.5 517.7-2.5L517.7-2.5Q519.2-2.5 520.6-2.98 522-3.45 522.95-4L522.95-4 524.45-0.75Q522.95 0 521.03 0.5 519.1 1 517.2 1L517.2 1Q511.55 1 508.5-1.8 505.45-4.6 505.45-9.5L505.45-9.5ZM529.2-25L529.2-25.5Q529.2-30.4 532.25-33.2 535.3-36 540.95-36L540.95-36Q542.85-36 544.77-35.5 546.7-35 548.2-34.25L548.2-34.25 546.7-31Q545.75-31.55 544.35-32.02 542.95-32.5 541.45-32.5L541.45-32.5Q540.4-32.5 539.45-32.1 538.5-31.7 537.77-30.88 537.05-30.05 536.62-28.7 536.2-27.35 536.2-25.5L536.2-25.5 536.2-25 543.95-25 543.95-21.5 536.2-21.5 536.2 0 529.2 0 529.2-21.5 524.45-21.5 524.45-25 529.2-25ZM561.94-2.25L561.94-2.25Q563.54-2.25 564.94-2.85 566.34-3.45 567.39-4.73 568.44-6 569.07-8.05 569.69-10.1 569.69-13L569.69-13Q569.69-15.9 569.07-17.95 568.44-20 567.39-21.28 566.34-22.55 564.94-23.15 563.54-23.75 561.94-23.75L561.94-23.75Q560.34-23.75 558.94-23.15 557.54-22.55 556.49-21.28 555.44-20 554.82-17.95 554.19-15.9 554.19-13L554.19-13Q554.19-10.1 554.82-8.05 555.44-6 556.49-4.73 557.54-3.45 558.94-2.85 560.34-2.25 561.94-2.25ZM561.94-27L561.94-27Q565.29-27 568.12-26.08 570.94-25.15 572.94-23.38 574.94-21.6 576.07-18.98 577.19-16.35 577.19-13L577.19-13Q577.19-9.6 576.07-7 574.94-4.4 572.94-2.63 570.94-0.85 568.12 0.08 565.29 1 561.94 1L561.94 1Q558.54 1 555.74 0.08 552.94-0.85 550.94-2.63 548.94-4.4 547.82-7 546.69-9.6 546.69-13L546.69-13Q546.69-16.35 547.82-18.98 548.94-21.6 550.94-23.38 552.94-25.15 555.74-26.08 558.54-27 561.94-27ZM602.69-26L602.69-22.5 596.69-22.5Q593.29-22.5 591.49-20.68 589.69-18.85 589.69-15.25L589.69-15.25 589.69 0 582.69 0 582.69-15.25Q582.69-20.35 585.92-23.18 589.14-26 595.19-26L595.19-26 602.69-26ZM606.69 0L606.69-26 632.69-26Q639.84-26 643.26-23.43 646.69-20.85 646.69-15.75L646.69-15.75 646.69 0 639.69 0 639.69-15.75Q639.69-19.35 637.89-20.93 636.09-22.5 632.69-22.5L632.69-22.5 630.19-22.5 630.19 0 623.19 0 623.19-22.5 613.69-22.5 613.69 0 606.69 0Z" opacity="1" transform="matrix(1,0,0,1,0,0)" fill="black" class="slogan-text-1" id="SvgjsPath1498"></path></svg></g></svg></g></svg></g></svg></g><g transform="matrix(1,0,0,1,412.8352710992592,0)"><svg viewBox="0 0 177.6940022579084 147.68345965435057" height="147.68345965435057" width="177.6940022579084"><g><svg xmlns="http://www.w3.org/2000/svg" xmlns:xlink="http://www.w3.org/1999/xlink" version="1.1" x="0" y="0" viewBox="5 12.6 90 74.80000000000001" enable-background="new 0 0 100 100" xml:space="preserve" height="147.68345965435057" width="177.6940022579084" class="icon-icon-0" data-fill-palette-color="accent" id="SvgjsSvg1497"><g fill="black"><g fill="black"><path d="M28.7 40c6.2 3 9.8 3.8 13.4 8.3 0.9 1.1 1.3 0.8 1.1-0.2-1.8-8.2-9.6-20.5-21.5-26.1C26.9 28.9 21.6 36.5 28.7 40z" fill="black"></path><path d="M40.2 51.5c-4.8-6.9-16.9-15.1-30-15.6 7.5 4.4 5.6 13.4 13.5 13.9 6.9 0.4 10.5-0.3 15.5 2.4C40.5 52.8 40.8 52.3 40.2 51.5z" fill="black"></path><path d="M5 53.2c8.6 1.1 10.4 10.2 17.9 7.4 6.5-2.3 9.5-4.4 15.2-3.9 1.5 0.1 1.5-0.4 0.6-0.9C31.5 51.4 17.2 48.5 5 53.2z" fill="black"></path><path d="M7 71.2c8.3-2.3 13.5 5.3 19.4-0.2 5-4.7 7-7.8 12.5-9.6 1.4-0.5 1.2-1 0.2-1.1C30.8 59.1 16.4 62.1 7 71.2z" fill="black"></path><path d="M16.4 87.4c6.7-5.5 14.5-0.6 17.7-8 2.7-6.3 3.3-10 7.5-13.8 1.1-1 0.7-1.4-0.3-1.1C33.2 66.8 21.3 75.3 16.4 87.4z" fill="black"></path><path d="M58.4 65.2c3.1 7.8 12.9 18.6 25.5 22.2-6.2-6-2.3-14.4-9.9-16.7-6.6-2-10.3-2.1-14.6-5.9C58.3 63.8 58 64.2 58.4 65.2z" fill="black"></path><path d="M60.9 61c6.1 5.8 19.5 11.7 32.4 9.6-8.2-2.9-8-12.1-15.9-11.1-6.8 0.9-10.3 2.3-15.7 0.6C60.3 59.8 60.2 60.3 60.9 61z" fill="black"></path><path d="M95 51.6c-8.6 0.7-12.3-7.7-19-3.5-5.8 3.7-8.4 6.3-14 7.1-1.4 0.2-1.4 0.7-0.4 1C69.4 59 84.1 58.8 95 51.6z" fill="black"></path><path d="M88.7 33.6c-7.6 4.2-14.4-2-18.8 4.7-3.8 5.7-5 9.2-9.9 12.2-1.2 0.7-0.9 1.2 0.1 1.1C68.4 50.9 81.7 44.6 88.7 33.6z" fill="black"></path><path d="M75.4 19.7c-5.1 7-13.9 4.2-15.2 12.1-1.1 6.8-0.8 10.5-3.9 15.2-0.8 1.2-0.3 1.5 0.5 1C64.2 43.8 73.7 32.7 75.4 19.7z" fill="black"></path><path d="M57.5 12.6c-1.8 8.5-10.9 9.6-8.8 17.3 1.9 6.6 3.7 9.9 2.8 15.5-0.2 1.4 0.3 1.5 0.9 0.7C57.3 39.2 61.3 25.1 57.5 12.6z" fill="black"></path><path d="M38.2 13.6c1.9 8.5-5.9 13.3-0.7 19.4 4.4 5.3 7.5 7.4 9 12.9 0.4 1.4 0.9 1.3 1.1 0.3C49.2 37.8 46.9 23.4 38.2 13.6z" fill="black"></path></g><path d="M46.5 65.2c-0.1 1.9-0.1 4.1-0.1 6.6 0 1.8 0.3 4.4 0.7 6.9 1.4-0.5 3.1-0.7 4.7-0.6-0.2-2-0.2-4.1-0.3-6.2 0-2 0.1-4.1 0.3-6.2 2.6-1.2 4.5-4.3 4.7-8.2 0.2-4.9-2.6-9-6.4-9.2-3.7-0.1-6.9 3.7-7 8.7C42.9 60.6 44.3 63.7 46.5 65.2z" fill="black"></path></g></svg></g></svg></g></svg></g><defs><mask></mask></defs></svg><rect width="395.5199999999999" height="98.9142530232532" fill="black" stroke="none" visibility="hidden"></rect></g></mask><linearGradient x1="0" x2="1" y1="0.5" y2="0.5" id="40351f49-e0b1-4176-a626-ce40ac40fb34"><stop stop-color="#ffa62e" offset="0"></stop><stop stop-color="#f71b3d" offset="1"></stop></linearGradient><rect width="395.5199999999999" height="98.9142530232532" fill="url(#40351f49-e0b1-4176-a626-ce40ac40fb34)" mask="url(#0285b680-e215-4e5e-9bb5-9c5a58bdba0b)" data-fill-palette-color="primary"></rect><mask id="5b737a9d-d345-42df-a08a-aef380efe42a"><g id="SvgjsG1514"><svg viewBox="0 0 395.5199999999999 98.9142530232532" height="98.9142530232532" width="395.5199999999999"><g><svg viewBox="0 0 590.5292733571677 147.68345965435057" height="98.9142530232532" width="395.5199999999999"><g transform="matrix(1,0,0,1,0,20.410666276397222)"><svg viewBox="0 0 395.52 106.86212710155613" height="106.86212710155613" width="395.52"><g id="SvgjsG1513"><svg viewBox="0 0 395.52 106.86212710155613" height="106.86212710155613" width="395.52" id="SvgjsSvg1512"><g><svg viewBox="0 0 395.52 73.34617283950617" height="73.34617283950617" width="395.52"><g transform="matrix(1,0,0,1,0,0)"><svg width="395.52" viewBox="0.75 -35.55 201.63 36.05" height="73.34617283950617" data-palette-color="url(#40351f49-e0b1-4176-a626-ce40ac40fb34)"><g class="wordmark-text-0" data-fill-palette-color="primary" id="SvgjsG1511"></g></svg></g></svg></g><g transform="matrix(1,0,0,1,163.310208,90.66144393876543)"><svg viewBox="0 0 232.209792 16.200683162790696" height="16.200683162790696" width="232.209792"><g transform="matrix(1,0,0,1,0,0)"><svg width="232.209792" viewBox="1.75 -36 644.94 45" height="16.200683162790696" data-palette-color="url(#442dad4b-711d-4597-acc9-62f2b826ba9a)"><path d="M9.25-8.25L9.25-8.25Q9.25-3.5 15-3.5L15-3.5 22-3.5 22-13 15-13Q9.25-13 9.25-8.25ZM15-16.5L22-16.5Q22-20.1 20.13-21.8 18.25-23.5 15.25-23.5L15.25-23.5Q13-23.5 10.85-22.83 8.7-22.15 7-21L7-21 5.25-24Q6.35-24.75 7.68-25.3 9-25.85 10.4-26.23 11.8-26.6 13.18-26.8 14.55-27 15.75-27L15.75-27Q18.95-27 21.4-26.25 23.85-25.5 25.55-24.1 27.25-22.7 28.13-20.78 29-18.85 29-16.5L29-16.5 29 0 15 0Q8.2 0 4.98-2.05 1.75-4.1 1.75-8.25L1.75-8.25Q1.75-12.4 4.98-14.45 8.2-16.5 15-16.5L15-16.5ZM42.75-35L42.75 0 35.75 0 35.75-35 42.75-35ZM56.75-35L56.75 0 49.75 0 49.75-35 56.75-35ZM83.49-9.5L83.49-22.5 78.74-22.5 78.74-26 83.49-26 83.49-34 90.49-34 90.49-26 98.24-26 98.24-22.5 90.49-22.5 90.49-9.5Q90.49-7.6 90.92-6.28 91.34-4.95 92.07-4.13 92.79-3.3 93.74-2.9 94.69-2.5 95.74-2.5L95.74-2.5Q97.24-2.5 98.64-2.98 100.04-3.45 100.99-4L100.99-4 102.49-0.75Q100.99 0 99.07 0.5 97.14 1 95.24 1L95.24 1Q89.59 1 86.54-1.8 83.49-4.6 83.49-9.5L83.49-9.5ZM118.99-2.25L118.99-2.25Q120.59-2.25 121.99-2.85 123.39-3.45 124.44-4.73 125.49-6 126.11-8.05 126.74-10.1 126.74-13L126.74-13Q126.74-15.9 126.11-17.95 125.49-20 124.44-21.28 123.39-22.55 121.99-23.15 120.59-23.75 118.99-23.75L118.99-23.75Q117.39-23.75 115.99-23.15 114.59-22.55 113.54-21.28 112.49-20 111.86-17.95 111.24-15.9 111.24-13L111.24-13Q111.24-10.1 111.86-8.05 112.49-6 113.54-4.73 114.59-3.45 115.99-2.85 117.39-2.25 118.99-2.25ZM118.99-27L118.99-27Q122.34-27 125.16-26.08 127.99-25.15 129.99-23.38 131.99-21.6 133.11-18.98 134.24-16.35 134.24-13L134.24-13Q134.24-9.6 133.11-7 131.99-4.4 129.99-2.63 127.99-0.85 125.16 0.08 122.34 1 118.99 1L118.99 1Q115.59 1 112.79 0.08 109.99-0.85 107.99-2.63 105.99-4.4 104.86-7 103.74-9.6 103.74-13L103.74-13Q103.74-16.35 104.86-18.98 105.99-21.6 107.99-23.38 109.99-25.15 112.79-26.08 115.59-27 118.99-27ZM153.99-2.25L153.99-2.25Q155.59-2.25 156.99-2.85 158.39-3.45 159.44-4.73 160.49-6 161.11-8.05 161.74-10.1 161.74-13L161.74-13Q161.74-15.9 161.11-17.95 160.49-20 159.44-21.28 158.39-22.55 156.99-23.15 155.59-23.75 153.99-23.75L153.99-23.75Q152.39-23.75 150.99-23.15 149.59-22.55 148.54-21.28 147.49-20 146.86-17.95 146.24-15.9 146.24-13L146.24-13Q146.24-10.1 146.86-8.05 147.49-6 148.54-4.73 149.59-3.45 150.99-2.85 152.39-2.25 153.99-2.25ZM153.99-27L153.99-27Q157.34-27 160.16-26.08 162.99-25.15 164.99-23.38 166.99-21.6 168.11-18.98 169.24-16.35 169.24-13L169.24-13Q169.24-9.6 168.11-7 166.99-4.4 164.99-2.63 162.99-0.85 160.16 0.08 157.34 1 153.99 1L153.99 1Q150.59 1 147.79 0.08 144.99-0.85 142.99-2.63 140.99-4.4 139.86-7 138.74-9.6 138.74-13L138.74-13Q138.74-16.35 139.86-18.98 140.99-21.6 142.99-23.38 144.99-25.15 147.79-26.08 150.59-27 153.99-27ZM181.98-35L181.98 0 174.98 0 174.98-35 181.98-35ZM194.98-20.5L194.98-20.5Q194.98-19.35 196.01-18.4 197.03-17.45 199.48-16.75L199.48-16.75 207.23-14.5Q210.83-13.45 212.78-11.65 214.73-9.85 214.73-7L214.73-7Q214.73-5.2 213.98-3.73 213.23-2.25 211.53-1.2 209.83-0.15 207.13 0.43 204.43 1 200.48 1L200.48 1Q198.43 1 196.46 0.7 194.48 0.4 192.71-0.13 190.93-0.65 189.48-1.33 188.03-2 186.98-2.75L186.98-2.75 188.98-5.75Q191.08-4.45 193.91-3.48 196.73-2.5 200.48-2.5L200.48-2.5Q204.23-2.5 205.73-3.5 207.23-4.5 207.23-6L207.23-6Q207.23-7.15 206.18-8.08 205.13-9 202.48-9.75L202.48-9.75 194.73-12Q191.53-12.95 189.51-14.73 187.48-16.5 187.48-19.5L187.48-19.5Q187.48-21.1 188.21-22.48 188.93-23.85 190.48-24.85 192.03-25.85 194.43-26.43 196.83-27 200.23-27L200.23-27Q204.38-27 207.76-25.88 211.13-24.75 213.23-23.25L213.23-23.25 211.23-20.25Q209.18-21.55 206.58-22.53 203.98-23.5 200.23-23.5L200.23-23.5Q197.58-23.5 196.28-22.65 194.98-21.8 194.98-20.5ZM244.48-25.5L244.48 0 237.48 0 237.48-25.5 244.48-25.5ZM244.73-32.25L244.73-32.25Q244.73-30.75 243.7-29.63 242.68-28.5 240.98-28.5L240.98-28.5Q239.28-28.5 238.25-29.63 237.23-30.75 237.23-32.25L237.23-32.25Q237.23-33.75 238.25-34.88 239.28-36 240.98-36L240.98-36Q242.63-36 243.68-34.88 244.73-33.75 244.73-32.25ZM279.22-15.75L279.22 0 272.22 0 272.22-15.75Q272.22-19.35 270.42-20.93 268.62-22.5 265.22-22.5L265.22-22.5 258.72-22.5 258.72 0 251.72 0 251.72-26 265.22-26Q272.37-26 275.8-23.43 279.22-20.85 279.22-15.75L279.22-15.75ZM317.47-2.25L317.47-2.25Q319.07-2.25 320.47-2.85 321.87-3.45 322.92-4.73 323.97-6 324.59-8.05 325.22-10.1 325.22-13L325.22-13Q325.22-15.9 324.59-17.95 323.97-20 322.92-21.28 321.87-22.55 320.47-23.15 319.07-23.75 317.47-23.75L317.47-23.75Q315.87-23.75 314.47-23.15 313.07-22.55 312.02-21.28 310.97-20 310.34-17.95 309.72-15.9 309.72-13L309.72-13Q309.72-10.1 310.34-8.05 310.97-6 312.02-4.73 313.07-3.45 314.47-2.85 315.87-2.25 317.47-2.25ZM317.47-27L317.47-27Q320.82-27 323.64-26.08 326.47-25.15 328.47-23.38 330.47-21.6 331.59-18.98 332.72-16.35 332.72-13L332.72-13Q332.72-9.6 331.59-7 330.47-4.4 328.47-2.63 326.47-0.85 323.64 0.08 320.82 1 317.47 1L317.47 1Q314.07 1 311.27 0.08 308.47-0.85 306.47-2.63 304.47-4.4 303.34-7 302.22-9.6 302.22-13L302.22-13Q302.22-16.35 303.34-18.98 304.47-21.6 306.47-23.38 308.47-25.15 311.27-26.08 314.07-27 317.47-27ZM365.97-15.75L365.97 0 358.97 0 358.97-15.75Q358.97-19.35 357.17-20.93 355.37-22.5 351.97-22.5L351.97-22.5 345.47-22.5 345.47 0 338.47 0 338.47-26 351.97-26Q359.12-26 362.54-23.43 365.97-20.85 365.97-15.75L365.97-15.75ZM387.71-2.5L387.71-2.5Q390.16-2.5 392.29-3.35 394.41-4.2 396.46-5.75L396.46-5.75 398.46-2.75Q397.51-1.9 396.24-1.2 394.96-0.5 393.49-0.03 392.01 0.45 390.41 0.73 388.81 1 387.21 1L387.21 1Q383.66 1 380.74 0.08 377.81-0.85 375.76-2.63 373.71-4.4 372.59-7 371.46-9.6 371.46-13L371.46-13Q371.46-16.35 372.54-18.98 373.61-21.6 375.54-23.38 377.46-25.15 380.11-26.08 382.76-27 385.96-27L385.96-27Q388.96-27 391.61-26.1 394.26-25.2 396.21-23.48 398.16-21.75 399.31-19.3 400.46-16.85 400.46-13.75L400.46-13.75 400.46-10.25 379.11-10.25Q379.71-6.1 381.99-4.3 384.26-2.5 387.71-2.5ZM385.96-23.75L385.96-23.75Q384.51-23.75 383.26-23.2 382.01-22.65 381.09-21.45 380.16-20.25 379.59-18.35 379.01-16.45 378.96-13.75L378.96-13.75 392.96-13.75Q392.96-16.35 392.36-18.25 391.76-20.15 390.79-21.38 389.81-22.6 388.54-23.18 387.26-23.75 385.96-23.75ZM436.96-22.5L430.71-22.5 430.71-3.5 436.96-3.5Q438.66-3.5 440.08-4.03 441.51-4.55 442.53-5.7 443.56-6.85 444.13-8.65 444.71-10.45 444.71-13L444.71-13Q444.71-15.55 444.13-17.35 443.56-19.15 442.53-20.3 441.51-21.45 440.08-21.98 438.66-22.5 436.96-22.5L436.96-22.5ZM423.71-26L436.96-26Q440.41-26 443.23-25.1 446.06-24.2 448.06-22.5 450.06-20.8 451.13-18.4 452.21-16 452.21-13L452.21-13Q452.21-10 451.13-7.6 450.06-5.2 448.06-3.5 446.06-1.8 443.23-0.9 440.41 0 436.96 0L436.96 0 430.71 0 430.71 9 423.71 9 423.71-26ZM464.96-35L464.96 0 457.96 0 457.96-35 464.96-35ZM477.7-8.25L477.7-8.25Q477.7-3.5 483.45-3.5L483.45-3.5 490.45-3.5 490.45-13 483.45-13Q477.7-13 477.7-8.25ZM483.45-16.5L490.45-16.5Q490.45-20.1 488.58-21.8 486.7-23.5 483.7-23.5L483.7-23.5Q481.45-23.5 479.3-22.83 477.15-22.15 475.45-21L475.45-21 473.7-24Q474.8-24.75 476.13-25.3 477.45-25.85 478.85-26.23 480.25-26.6 481.63-26.8 483-27 484.2-27L484.2-27Q487.4-27 489.85-26.25 492.3-25.5 494-24.1 495.7-22.7 496.58-20.78 497.45-18.85 497.45-16.5L497.45-16.5 497.45 0 483.45 0Q476.65 0 473.43-2.05 470.2-4.1 470.2-8.25L470.2-8.25Q470.2-12.4 473.43-14.45 476.65-16.5 483.45-16.5L483.45-16.5ZM505.45-9.5L505.45-22.5 500.7-22.5 500.7-26 505.45-26 505.45-34 512.45-34 512.45-26 520.2-26 520.2-22.5 512.45-22.5 512.45-9.5Q512.45-7.6 512.88-6.28 513.3-4.95 514.03-4.13 514.75-3.3 515.7-2.9 516.65-2.5 517.7-2.5L517.7-2.5Q519.2-2.5 520.6-2.98 522-3.45 522.95-4L522.95-4 524.45-0.75Q522.95 0 521.03 0.5 519.1 1 517.2 1L517.2 1Q511.55 1 508.5-1.8 505.45-4.6 505.45-9.5L505.45-9.5ZM529.2-25L529.2-25.5Q529.2-30.4 532.25-33.2 535.3-36 540.95-36L540.95-36Q542.85-36 544.77-35.5 546.7-35 548.2-34.25L548.2-34.25 546.7-31Q545.75-31.55 544.35-32.02 542.95-32.5 541.45-32.5L541.45-32.5Q540.4-32.5 539.45-32.1 538.5-31.7 537.77-30.88 537.05-30.05 536.62-28.7 536.2-27.35 536.2-25.5L536.2-25.5 536.2-25 543.95-25 543.95-21.5 536.2-21.5 536.2 0 529.2 0 529.2-21.5 524.45-21.5 524.45-25 529.2-25ZM561.94-2.25L561.94-2.25Q563.54-2.25 564.94-2.85 566.34-3.45 567.39-4.73 568.44-6 569.07-8.05 569.69-10.1 569.69-13L569.69-13Q569.69-15.9 569.07-17.95 568.44-20 567.39-21.28 566.34-22.55 564.94-23.15 563.54-23.75 561.94-23.75L561.94-23.75Q560.34-23.75 558.94-23.15 557.54-22.55 556.49-21.28 555.44-20 554.82-17.95 554.19-15.9 554.19-13L554.19-13Q554.19-10.1 554.82-8.05 555.44-6 556.49-4.73 557.54-3.45 558.94-2.85 560.34-2.25 561.94-2.25ZM561.94-27L561.94-27Q565.29-27 568.12-26.08 570.94-25.15 572.94-23.38 574.94-21.6 576.07-18.98 577.19-16.35 577.19-13L577.19-13Q577.19-9.6 576.07-7 574.94-4.4 572.94-2.63 570.94-0.85 568.12 0.08 565.29 1 561.94 1L561.94 1Q558.54 1 555.74 0.08 552.94-0.85 550.94-2.63 548.94-4.4 547.82-7 546.69-9.6 546.69-13L546.69-13Q546.69-16.35 547.82-18.98 548.94-21.6 550.94-23.38 552.94-25.15 555.74-26.08 558.54-27 561.94-27ZM602.69-26L602.69-22.5 596.69-22.5Q593.29-22.5 591.49-20.68 589.69-18.85 589.69-15.25L589.69-15.25 589.69 0 582.69 0 582.69-15.25Q582.69-20.35 585.92-23.18 589.14-26 595.19-26L595.19-26 602.69-26ZM606.69 0L606.69-26 632.69-26Q639.84-26 643.26-23.43 646.69-20.85 646.69-15.75L646.69-15.75 646.69 0 639.69 0 639.69-15.75Q639.69-19.35 637.89-20.93 636.09-22.5 632.69-22.5L632.69-22.5 630.19-22.5 630.19 0 623.19 0 623.19-22.5 613.69-22.5 613.69 0 606.69 0Z" opacity="1" transform="matrix(1,0,0,1,0,0)" fill="white" class="slogan-text-1" id="SvgjsPath1510"></path></svg></g></svg></g></svg></g></svg></g><g transform="matrix(1,0,0,1,412.8352710992592,0)"><svg viewBox="0 0 177.6940022579084 147.68345965435057" height="147.68345965435057" width="177.6940022579084"><g><svg xmlns="http://www.w3.org/2000/svg" xmlns:xlink="http://www.w3.org/1999/xlink" version="1.1" x="0" y="0" viewBox="5 12.6 90 74.80000000000001" enable-background="new 0 0 100 100" xml:space="preserve" height="147.68345965435057" width="177.6940022579084" class="icon-icon-0" data-fill-palette-color="accent" id="SvgjsSvg1509"><g fill="black"><g fill="black"><path d="M28.7 40c6.2 3 9.8 3.8 13.4 8.3 0.9 1.1 1.3 0.8 1.1-0.2-1.8-8.2-9.6-20.5-21.5-26.1C26.9 28.9 21.6 36.5 28.7 40z" fill="black"></path><path d="M40.2 51.5c-4.8-6.9-16.9-15.1-30-15.6 7.5 4.4 5.6 13.4 13.5 13.9 6.9 0.4 10.5-0.3 15.5 2.4C40.5 52.8 40.8 52.3 40.2 51.5z" fill="black"></path><path d="M5 53.2c8.6 1.1 10.4 10.2 17.9 7.4 6.5-2.3 9.5-4.4 15.2-3.9 1.5 0.1 1.5-0.4 0.6-0.9C31.5 51.4 17.2 48.5 5 53.2z" fill="black"></path><path d="M7 71.2c8.3-2.3 13.5 5.3 19.4-0.2 5-4.7 7-7.8 12.5-9.6 1.4-0.5 1.2-1 0.2-1.1C30.8 59.1 16.4 62.1 7 71.2z" fill="black"></path><path d="M16.4 87.4c6.7-5.5 14.5-0.6 17.7-8 2.7-6.3 3.3-10 7.5-13.8 1.1-1 0.7-1.4-0.3-1.1C33.2 66.8 21.3 75.3 16.4 87.4z" fill="black"></path><path d="M58.4 65.2c3.1 7.8 12.9 18.6 25.5 22.2-6.2-6-2.3-14.4-9.9-16.7-6.6-2-10.3-2.1-14.6-5.9C58.3 63.8 58 64.2 58.4 65.2z" fill="black"></path><path d="M60.9 61c6.1 5.8 19.5 11.7 32.4 9.6-8.2-2.9-8-12.1-15.9-11.1-6.8 0.9-10.3 2.3-15.7 0.6C60.3 59.8 60.2 60.3 60.9 61z" fill="black"></path><path d="M95 51.6c-8.6 0.7-12.3-7.7-19-3.5-5.8 3.7-8.4 6.3-14 7.1-1.4 0.2-1.4 0.7-0.4 1C69.4 59 84.1 58.8 95 51.6z" fill="black"></path><path d="M88.7 33.6c-7.6 4.2-14.4-2-18.8 4.7-3.8 5.7-5 9.2-9.9 12.2-1.2 0.7-0.9 1.2 0.1 1.1C68.4 50.9 81.7 44.6 88.7 33.6z" fill="black"></path><path d="M75.4 19.7c-5.1 7-13.9 4.2-15.2 12.1-1.1 6.8-0.8 10.5-3.9 15.2-0.8 1.2-0.3 1.5 0.5 1C64.2 43.8 73.7 32.7 75.4 19.7z" fill="black"></path><path d="M57.5 12.6c-1.8 8.5-10.9 9.6-8.8 17.3 1.9 6.6 3.7 9.9 2.8 15.5-0.2 1.4 0.3 1.5 0.9 0.7C57.3 39.2 61.3 25.1 57.5 12.6z" fill="black"></path><path d="M38.2 13.6c1.9 8.5-5.9 13.3-0.7 19.4 4.4 5.3 7.5 7.4 9 12.9 0.4 1.4 0.9 1.3 1.1 0.3C49.2 37.8 46.9 23.4 38.2 13.6z" fill="black"></path></g><path d="M46.5 65.2c-0.1 1.9-0.1 4.1-0.1 6.6 0 1.8 0.3 4.4 0.7 6.9 1.4-0.5 3.1-0.7 4.7-0.6-0.2-2-0.2-4.1-0.3-6.2 0-2 0.1-4.1 0.3-6.2 2.6-1.2 4.5-4.3 4.7-8.2 0.2-4.9-2.6-9-6.4-9.2-3.7-0.1-6.9 3.7-7 8.7C42.9 60.6 44.3 63.7 46.5 65.2z" fill="black"></path></g></svg></g></svg></g></svg></g><defs><mask></mask></defs><mask><g id="SvgjsG1508"><svg viewBox="0 0 395.5199999999999 98.9142530232532" height="98.9142530232532" width="395.5199999999999"><g><svg viewBox="0 0 590.5292733571677 147.68345965435057" height="98.9142530232532" width="395.5199999999999"><g transform="matrix(1,0,0,1,0,20.410666276397222)"><svg viewBox="0 0 395.52 106.86212710155613" height="106.86212710155613" width="395.52"><g id="SvgjsG1507"><svg viewBox="0 0 395.52 106.86212710155613" height="106.86212710155613" width="395.52" id="SvgjsSvg1506"><g><svg viewBox="0 0 395.52 73.34617283950617" height="73.34617283950617" width="395.52"><g transform="matrix(1,0,0,1,0,0)"><svg width="395.52" viewBox="0.75 -35.55 201.63 36.05" height="73.34617283950617" data-palette-color="url(#40351f49-e0b1-4176-a626-ce40ac40fb34)"><g class="wordmark-text-0" data-fill-palette-color="primary" id="SvgjsG1505"><path d="M0.75-34.05L0.75-35 15.45-35Q23-35 26.7-32.83 30.4-30.65 30.4-25.05L30.4-25.05Q30.4-18.85 25.9-16.5L25.9-16.5Q21.7-14.35 14.15-14.35L14.15-14.35 13.75-14.35 13.75-0.95 20-0.95 20 0 0.75 0 0.75-0.95 4-0.95 4-34.05 0.75-34.05ZM15.1-34.05L13.75-34.05 13.75-15.3 14.8-15.3Q17.8-15.3 18.95-17.35 20.1-19.4 20.1-24L20.1-24 20.1-26.4Q20.1-30.65 19.03-32.35 17.95-34.05 15.1-34.05L15.1-34.05ZM56.75-15.45L56.75-15.45 56.75-19.15Q56.75-28.3 55.85-30.7L55.85-30.7Q54.85-33.45 53-34.1L53-34.1Q51.95-34.5 50.45-34.5 48.95-34.5 47.87-34.1 46.8-33.7 46.1-32.7 45.4-31.7 44.97-30.6 44.55-29.5 44.3-27.5L44.3-27.5Q44-24.6 44-18.95L44-18.95 44-15.35Q44-9.25 44.47-6.68 44.95-4.1 45.65-3L45.65-3Q47.2-0.55 50.45-0.55L50.45-0.55Q54.4-0.55 55.57-3.88 56.75-7.2 56.75-15.45ZM50.35 0.5Q42 0.5 37.87-4.03 33.75-8.55 33.75-17.13 33.75-25.7 38.17-30.63 42.6-35.55 50.7-35.55 58.8-35.55 62.92-30.88 67.05-26.2 67.05-17.6 67.05-9 62.87-4.25 58.7 0.5 50.35 0.5ZM71.39-35L100.89-35 101.4-22.45 100.44-22.45Q98.25-29.1 96.55-31.53 94.84-33.95 91.64-33.95L91.64-33.95 91.05-33.95 91.05-1.05 95.3-1.05 95.3 0 77.05 0 77.05-1.05 81.3-1.05 81.3-33.95 80.64-33.95Q77.44-33.95 75.69-31.43 73.94-28.9 71.84-22.45L71.84-22.45 70.89-22.45 71.39-35ZM121.29-0.95L124.84-0.95 121.19-11.75 111.29-11.75 107.44-0.95 111.19-0.95 111.19 0 103.54 0 103.54-0.95 105.89-0.95 118.64-35.3 122.74-35.3 135.34-0.95 137.64-0.95 137.64 0 121.29 0 121.29-0.95ZM120.79-12.85L116.44-25.95 111.74-12.85 120.79-12.85ZM144.51 0.5Q142.34 0.5 141.26-0.78 140.19-2.05 140.19-3.88 140.19-5.7 141.31-6.95 142.44-8.2 144.49-8.2 146.54-8.2 147.74-7.15 148.94-6.1 148.94-4 148.94-1.9 147.81-0.7 146.69 0.5 144.51 0.5ZM169.24-0.95L172.79-0.95 169.14-11.75 159.24-11.75 155.39-0.95 159.14-0.95 159.14 0 151.49 0 151.49-0.95 153.84-0.95 166.59-35.3 170.69-35.3 183.29-0.95 185.59-0.95 185.59 0 169.24 0 169.24-0.95ZM168.74-12.85L164.39-25.95 159.69-12.85 168.74-12.85ZM187.13-34.05L187.13-35 202.38-35 202.38-34.05 199.63-34.05 199.63-0.95 202.38-0.95 202.38 0 187.13 0 187.13-0.95 189.88-0.95 189.88-34.05 187.13-34.05Z" fill="black"></path></g></svg></g></svg></g><g transform="matrix(1,0,0,1,163.310208,90.66144393876543)"><svg viewBox="0 0 232.209792 16.200683162790696" height="16.200683162790696" width="232.209792"><g transform="matrix(1,0,0,1,0,0)"><svg width="232.209792" viewBox="1.75 -36 644.94 45" height="16.200683162790696" data-palette-color="url(#442dad4b-711d-4597-acc9-62f2b826ba9a)"><path d="M9.25-8.25L9.25-8.25Q9.25-3.5 15-3.5L15-3.5 22-3.5 22-13 15-13Q9.25-13 9.25-8.25ZM15-16.5L22-16.5Q22-20.1 20.13-21.8 18.25-23.5 15.25-23.5L15.25-23.5Q13-23.5 10.85-22.83 8.7-22.15 7-21L7-21 5.25-24Q6.35-24.75 7.68-25.3 9-25.85 10.4-26.23 11.8-26.6 13.18-26.8 14.55-27 15.75-27L15.75-27Q18.95-27 21.4-26.25 23.85-25.5 25.55-24.1 27.25-22.7 28.13-20.78 29-18.85 29-16.5L29-16.5 29 0 15 0Q8.2 0 4.98-2.05 1.75-4.1 1.75-8.25L1.75-8.25Q1.75-12.4 4.98-14.45 8.2-16.5 15-16.5L15-16.5ZM42.75-35L42.75 0 35.75 0 35.75-35 42.75-35ZM56.75-35L56.75 0 49.75 0 49.75-35 56.75-35ZM83.49-9.5L83.49-22.5 78.74-22.5 78.74-26 83.49-26 83.49-34 90.49-34 90.49-26 98.24-26 98.24-22.5 90.49-22.5 90.49-9.5Q90.49-7.6 90.92-6.28 91.34-4.95 92.07-4.13 92.79-3.3 93.74-2.9 94.69-2.5 95.74-2.5L95.74-2.5Q97.24-2.5 98.64-2.98 100.04-3.45 100.99-4L100.99-4 102.49-0.75Q100.99 0 99.07 0.5 97.14 1 95.24 1L95.24 1Q89.59 1 86.54-1.8 83.49-4.6 83.49-9.5L83.49-9.5ZM118.99-2.25L118.99-2.25Q120.59-2.25 121.99-2.85 123.39-3.45 124.44-4.73 125.49-6 126.11-8.05 126.74-10.1 126.74-13L126.74-13Q126.74-15.9 126.11-17.95 125.49-20 124.44-21.28 123.39-22.55 121.99-23.15 120.59-23.75 118.99-23.75L118.99-23.75Q117.39-23.75 115.99-23.15 114.59-22.55 113.54-21.28 112.49-20 111.86-17.95 111.24-15.9 111.24-13L111.24-13Q111.24-10.1 111.86-8.05 112.49-6 113.54-4.73 114.59-3.45 115.99-2.85 117.39-2.25 118.99-2.25ZM118.99-27L118.99-27Q122.34-27 125.16-26.08 127.99-25.15 129.99-23.38 131.99-21.6 133.11-18.98 134.24-16.35 134.24-13L134.24-13Q134.24-9.6 133.11-7 131.99-4.4 129.99-2.63 127.99-0.85 125.16 0.08 122.34 1 118.99 1L118.99 1Q115.59 1 112.79 0.08 109.99-0.85 107.99-2.63 105.99-4.4 104.86-7 103.74-9.6 103.74-13L103.74-13Q103.74-16.35 104.86-18.98 105.99-21.6 107.99-23.38 109.99-25.15 112.79-26.08 115.59-27 118.99-27ZM153.99-2.25L153.99-2.25Q155.59-2.25 156.99-2.85 158.39-3.45 159.44-4.73 160.49-6 161.11-8.05 161.74-10.1 161.74-13L161.74-13Q161.74-15.9 161.11-17.95 160.49-20 159.44-21.28 158.39-22.55 156.99-23.15 155.59-23.75 153.99-23.75L153.99-23.75Q152.39-23.75 150.99-23.15 149.59-22.55 148.54-21.28 147.49-20 146.86-17.95 146.24-15.9 146.24-13L146.24-13Q146.24-10.1 146.86-8.05 147.49-6 148.54-4.73 149.59-3.45 150.99-2.85 152.39-2.25 153.99-2.25ZM153.99-27L153.99-27Q157.34-27 160.16-26.08 162.99-25.15 164.99-23.38 166.99-21.6 168.11-18.98 169.24-16.35 169.24-13L169.24-13Q169.24-9.6 168.11-7 166.99-4.4 164.99-2.63 162.99-0.85 160.16 0.08 157.34 1 153.99 1L153.99 1Q150.59 1 147.79 0.08 144.99-0.85 142.99-2.63 140.99-4.4 139.86-7 138.74-9.6 138.74-13L138.74-13Q138.74-16.35 139.86-18.98 140.99-21.6 142.99-23.38 144.99-25.15 147.79-26.08 150.59-27 153.99-27ZM181.98-35L181.98 0 174.98 0 174.98-35 181.98-35ZM194.98-20.5L194.98-20.5Q194.98-19.35 196.01-18.4 197.03-17.45 199.48-16.75L199.48-16.75 207.23-14.5Q210.83-13.45 212.78-11.65 214.73-9.85 214.73-7L214.73-7Q214.73-5.2 213.98-3.73 213.23-2.25 211.53-1.2 209.83-0.15 207.13 0.43 204.43 1 200.48 1L200.48 1Q198.43 1 196.46 0.7 194.48 0.4 192.71-0.13 190.93-0.65 189.48-1.33 188.03-2 186.98-2.75L186.98-2.75 188.98-5.75Q191.08-4.45 193.91-3.48 196.73-2.5 200.48-2.5L200.48-2.5Q204.23-2.5 205.73-3.5 207.23-4.5 207.23-6L207.23-6Q207.23-7.15 206.18-8.08 205.13-9 202.48-9.75L202.48-9.75 194.73-12Q191.53-12.95 189.51-14.73 187.48-16.5 187.48-19.5L187.48-19.5Q187.48-21.1 188.21-22.48 188.93-23.85 190.48-24.85 192.03-25.85 194.43-26.43 196.83-27 200.23-27L200.23-27Q204.38-27 207.76-25.88 211.13-24.75 213.23-23.25L213.23-23.25 211.23-20.25Q209.18-21.55 206.58-22.53 203.98-23.5 200.23-23.5L200.23-23.5Q197.58-23.5 196.28-22.65 194.98-21.8 194.98-20.5ZM244.48-25.5L244.48 0 237.48 0 237.48-25.5 244.48-25.5ZM244.73-32.25L244.73-32.25Q244.73-30.75 243.7-29.63 242.68-28.5 240.98-28.5L240.98-28.5Q239.28-28.5 238.25-29.63 237.23-30.75 237.23-32.25L237.23-32.25Q237.23-33.75 238.25-34.88 239.28-36 240.98-36L240.98-36Q242.63-36 243.68-34.88 244.73-33.75 244.73-32.25ZM279.22-15.75L279.22 0 272.22 0 272.22-15.75Q272.22-19.35 270.42-20.93 268.62-22.5 265.22-22.5L265.22-22.5 258.72-22.5 258.72 0 251.72 0 251.72-26 265.22-26Q272.37-26 275.8-23.43 279.22-20.85 279.22-15.75L279.22-15.75ZM317.47-2.25L317.47-2.25Q319.07-2.25 320.47-2.85 321.87-3.45 322.92-4.73 323.97-6 324.59-8.05 325.22-10.1 325.22-13L325.22-13Q325.22-15.9 324.59-17.95 323.97-20 322.92-21.28 321.87-22.55 320.47-23.15 319.07-23.75 317.47-23.75L317.47-23.75Q315.87-23.75 314.47-23.15 313.07-22.55 312.02-21.28 310.97-20 310.34-17.95 309.72-15.9 309.72-13L309.72-13Q309.72-10.1 310.34-8.05 310.97-6 312.02-4.73 313.07-3.45 314.47-2.85 315.87-2.25 317.47-2.25ZM317.47-27L317.47-27Q320.82-27 323.64-26.08 326.47-25.15 328.47-23.38 330.47-21.6 331.59-18.98 332.72-16.35 332.72-13L332.72-13Q332.72-9.6 331.59-7 330.47-4.4 328.47-2.63 326.47-0.85 323.64 0.08 320.82 1 317.47 1L317.47 1Q314.07 1 311.27 0.08 308.47-0.85 306.47-2.63 304.47-4.4 303.34-7 302.22-9.6 302.22-13L302.22-13Q302.22-16.35 303.34-18.98 304.47-21.6 306.47-23.38 308.47-25.15 311.27-26.08 314.07-27 317.47-27ZM365.97-15.75L365.97 0 358.97 0 358.97-15.75Q358.97-19.35 357.17-20.93 355.37-22.5 351.97-22.5L351.97-22.5 345.47-22.5 345.47 0 338.47 0 338.47-26 351.97-26Q359.12-26 362.54-23.43 365.97-20.85 365.97-15.75L365.97-15.75ZM387.71-2.5L387.71-2.5Q390.16-2.5 392.29-3.35 394.41-4.2 396.46-5.75L396.46-5.75 398.46-2.75Q397.51-1.9 396.24-1.2 394.96-0.5 393.49-0.03 392.01 0.45 390.41 0.73 388.81 1 387.21 1L387.21 1Q383.66 1 380.74 0.08 377.81-0.85 375.76-2.63 373.71-4.4 372.59-7 371.46-9.6 371.46-13L371.46-13Q371.46-16.35 372.54-18.98 373.61-21.6 375.54-23.38 377.46-25.15 380.11-26.08 382.76-27 385.96-27L385.96-27Q388.96-27 391.61-26.1 394.26-25.2 396.21-23.48 398.16-21.75 399.31-19.3 400.46-16.85 400.46-13.75L400.46-13.75 400.46-10.25 379.11-10.25Q379.71-6.1 381.99-4.3 384.26-2.5 387.71-2.5ZM385.96-23.75L385.96-23.75Q384.51-23.75 383.26-23.2 382.01-22.65 381.09-21.45 380.16-20.25 379.59-18.35 379.01-16.45 378.96-13.75L378.96-13.75 392.96-13.75Q392.96-16.35 392.36-18.25 391.76-20.15 390.79-21.38 389.81-22.6 388.54-23.18 387.26-23.75 385.96-23.75ZM436.96-22.5L430.71-22.5 430.71-3.5 436.96-3.5Q438.66-3.5 440.08-4.03 441.51-4.55 442.53-5.7 443.56-6.85 444.13-8.65 444.71-10.45 444.71-13L444.71-13Q444.71-15.55 444.13-17.35 443.56-19.15 442.53-20.3 441.51-21.45 440.08-21.98 438.66-22.5 436.96-22.5L436.96-22.5ZM423.71-26L436.96-26Q440.41-26 443.23-25.1 446.06-24.2 448.06-22.5 450.06-20.8 451.13-18.4 452.21-16 452.21-13L452.21-13Q452.21-10 451.13-7.6 450.06-5.2 448.06-3.5 446.06-1.8 443.23-0.9 440.41 0 436.96 0L436.96 0 430.71 0 430.71 9 423.71 9 423.71-26ZM464.96-35L464.96 0 457.96 0 457.96-35 464.96-35ZM477.7-8.25L477.7-8.25Q477.7-3.5 483.45-3.5L483.45-3.5 490.45-3.5 490.45-13 483.45-13Q477.7-13 477.7-8.25ZM483.45-16.5L490.45-16.5Q490.45-20.1 488.58-21.8 486.7-23.5 483.7-23.5L483.7-23.5Q481.45-23.5 479.3-22.83 477.15-22.15 475.45-21L475.45-21 473.7-24Q474.8-24.75 476.13-25.3 477.45-25.85 478.85-26.23 480.25-26.6 481.63-26.8 483-27 484.2-27L484.2-27Q487.4-27 489.85-26.25 492.3-25.5 494-24.1 495.7-22.7 496.58-20.78 497.45-18.85 497.45-16.5L497.45-16.5 497.45 0 483.45 0Q476.65 0 473.43-2.05 470.2-4.1 470.2-8.25L470.2-8.25Q470.2-12.4 473.43-14.45 476.65-16.5 483.45-16.5L483.45-16.5ZM505.45-9.5L505.45-22.5 500.7-22.5 500.7-26 505.45-26 505.45-34 512.45-34 512.45-26 520.2-26 520.2-22.5 512.45-22.5 512.45-9.5Q512.45-7.6 512.88-6.28 513.3-4.95 514.03-4.13 514.75-3.3 515.7-2.9 516.65-2.5 517.7-2.5L517.7-2.5Q519.2-2.5 520.6-2.98 522-3.45 522.95-4L522.95-4 524.45-0.75Q522.95 0 521.03 0.5 519.1 1 517.2 1L517.2 1Q511.55 1 508.5-1.8 505.45-4.6 505.45-9.5L505.45-9.5ZM529.2-25L529.2-25.5Q529.2-30.4 532.25-33.2 535.3-36 540.95-36L540.95-36Q542.85-36 544.77-35.5 546.7-35 548.2-34.25L548.2-34.25 546.7-31Q545.75-31.55 544.35-32.02 542.95-32.5 541.45-32.5L541.45-32.5Q540.4-32.5 539.45-32.1 538.5-31.7 537.77-30.88 537.05-30.05 536.62-28.7 536.2-27.35 536.2-25.5L536.2-25.5 536.2-25 543.95-25 543.95-21.5 536.2-21.5 536.2 0 529.2 0 529.2-21.5 524.45-21.5 524.45-25 529.2-25ZM561.94-2.25L561.94-2.25Q563.54-2.25 564.94-2.85 566.34-3.45 567.39-4.73 568.44-6 569.07-8.05 569.69-10.1 569.69-13L569.69-13Q569.69-15.9 569.07-17.95 568.44-20 567.39-21.28 566.34-22.55 564.94-23.15 563.54-23.75 561.94-23.75L561.94-23.75Q560.34-23.75 558.94-23.15 557.54-22.55 556.49-21.28 555.44-20 554.82-17.95 554.19-15.9 554.19-13L554.19-13Q554.19-10.1 554.82-8.05 555.44-6 556.49-4.73 557.54-3.45 558.94-2.85 560.34-2.25 561.94-2.25ZM561.94-27L561.94-27Q565.29-27 568.12-26.08 570.94-25.15 572.94-23.38 574.94-21.6 576.07-18.98 577.19-16.35 577.19-13L577.19-13Q577.19-9.6 576.07-7 574.94-4.4 572.94-2.63 570.94-0.85 568.12 0.08 565.29 1 561.94 1L561.94 1Q558.54 1 555.74 0.08 552.94-0.85 550.94-2.63 548.94-4.4 547.82-7 546.69-9.6 546.69-13L546.69-13Q546.69-16.35 547.82-18.98 548.94-21.6 550.94-23.38 552.94-25.15 555.74-26.08 558.54-27 561.94-27ZM602.69-26L602.69-22.5 596.69-22.5Q593.29-22.5 591.49-20.68 589.69-18.85 589.69-15.25L589.69-15.25 589.69 0 582.69 0 582.69-15.25Q582.69-20.35 585.92-23.18 589.14-26 595.19-26L595.19-26 602.69-26ZM606.69 0L606.69-26 632.69-26Q639.84-26 643.26-23.43 646.69-20.85 646.69-15.75L646.69-15.75 646.69 0 639.69 0 639.69-15.75Q639.69-19.35 637.89-20.93 636.09-22.5 632.69-22.5L632.69-22.5 630.19-22.5 630.19 0 623.19 0 623.19-22.5 613.69-22.5 613.69 0 606.69 0Z" opacity="1" transform="matrix(1,0,0,1,0,0)" fill="black" class="slogan-text-1" id="SvgjsPath1504"></path></svg></g></svg></g></svg></g></svg></g><g transform="matrix(1,0,0,1,412.8352710992592,0)"><svg viewBox="0 0 177.6940022579084 147.68345965435057" height="147.68345965435057" width="177.6940022579084"><g><svg xmlns="http://www.w3.org/2000/svg" xmlns:xlink="http://www.w3.org/1999/xlink" version="1.1" x="0" y="0" viewBox="5 12.6 90 74.80000000000001" enable-background="new 0 0 100 100" xml:space="preserve" height="147.68345965435057" width="177.6940022579084" class="icon-icon-0" data-fill-palette-color="accent" id="SvgjsSvg1503"><g fill="black"><g fill="black"><path d="M28.7 40c6.2 3 9.8 3.8 13.4 8.3 0.9 1.1 1.3 0.8 1.1-0.2-1.8-8.2-9.6-20.5-21.5-26.1C26.9 28.9 21.6 36.5 28.7 40z" fill="black"></path><path d="M40.2 51.5c-4.8-6.9-16.9-15.1-30-15.6 7.5 4.4 5.6 13.4 13.5 13.9 6.9 0.4 10.5-0.3 15.5 2.4C40.5 52.8 40.8 52.3 40.2 51.5z" fill="black"></path><path d="M5 53.2c8.6 1.1 10.4 10.2 17.9 7.4 6.5-2.3 9.5-4.4 15.2-3.9 1.5 0.1 1.5-0.4 0.6-0.9C31.5 51.4 17.2 48.5 5 53.2z" fill="black"></path><path d="M7 71.2c8.3-2.3 13.5 5.3 19.4-0.2 5-4.7 7-7.8 12.5-9.6 1.4-0.5 1.2-1 0.2-1.1C30.8 59.1 16.4 62.1 7 71.2z" fill="black"></path><path d="M16.4 87.4c6.7-5.5 14.5-0.6 17.7-8 2.7-6.3 3.3-10 7.5-13.8 1.1-1 0.7-1.4-0.3-1.1C33.2 66.8 21.3 75.3 16.4 87.4z" fill="black"></path><path d="M58.4 65.2c3.1 7.8 12.9 18.6 25.5 22.2-6.2-6-2.3-14.4-9.9-16.7-6.6-2-10.3-2.1-14.6-5.9C58.3 63.8 58 64.2 58.4 65.2z" fill="black"></path><path d="M60.9 61c6.1 5.8 19.5 11.7 32.4 9.6-8.2-2.9-8-12.1-15.9-11.1-6.8 0.9-10.3 2.3-15.7 0.6C60.3 59.8 60.2 60.3 60.9 61z" fill="black"></path><path d="M95 51.6c-8.6 0.7-12.3-7.7-19-3.5-5.8 3.7-8.4 6.3-14 7.1-1.4 0.2-1.4 0.7-0.4 1C69.4 59 84.1 58.8 95 51.6z" fill="black"></path><path d="M88.7 33.6c-7.6 4.2-14.4-2-18.8 4.7-3.8 5.7-5 9.2-9.9 12.2-1.2 0.7-0.9 1.2 0.1 1.1C68.4 50.9 81.7 44.6 88.7 33.6z" fill="black"></path><path d="M75.4 19.7c-5.1 7-13.9 4.2-15.2 12.1-1.1 6.8-0.8 10.5-3.9 15.2-0.8 1.2-0.3 1.5 0.5 1C64.2 43.8 73.7 32.7 75.4 19.7z" fill="black"></path><path d="M57.5 12.6c-1.8 8.5-10.9 9.6-8.8 17.3 1.9 6.6 3.7 9.9 2.8 15.5-0.2 1.4 0.3 1.5 0.9 0.7C57.3 39.2 61.3 25.1 57.5 12.6z" fill="black"></path><path d="M38.2 13.6c1.9 8.5-5.9 13.3-0.7 19.4 4.4 5.3 7.5 7.4 9 12.9 0.4 1.4 0.9 1.3 1.1 0.3C49.2 37.8 46.9 23.4 38.2 13.6z" fill="black"></path></g><path d="M46.5 65.2c-0.1 1.9-0.1 4.1-0.1 6.6 0 1.8 0.3 4.4 0.7 6.9 1.4-0.5 3.1-0.7 4.7-0.6-0.2-2-0.2-4.1-0.3-6.2 0-2 0.1-4.1 0.3-6.2 2.6-1.2 4.5-4.3 4.7-8.2 0.2-4.9-2.6-9-6.4-9.2-3.7-0.1-6.9 3.7-7 8.7C42.9 60.6 44.3 63.7 46.5 65.2z" fill="black"></path></g></svg></g></svg></g></svg></g><defs><mask></mask></defs></svg><rect width="395.5199999999999" height="98.9142530232532" fill="black" stroke="none" visibility="hidden"></rect></g></mask></svg><rect width="395.5199999999999" height="98.9142530232532" fill="black" stroke="none" visibility="hidden"></rect></g></mask><linearGradient x1="0" x2="1" y1="0.5" y2="0.5" id="442dad4b-711d-4597-acc9-62f2b826ba9a"><stop stop-color="#ffa62e" offset="0"></stop><stop stop-color="#f71b3d" offset="1"></stop></linearGradient><rect width="395.5199999999999" height="98.9142530232532" fill="url(#442dad4b-711d-4597-acc9-62f2b826ba9a)" mask="url(#5b737a9d-d345-42df-a08a-aef380efe42a)" data-fill-palette-color="secondary"></rect><mask id="c73c062a-f717-4095-b3a0-1a8c8d7b8f74"><g id="SvgjsG1537"><svg viewBox="0 0 395.5199999999999 98.9142530232532" height="98.9142530232532" width="395.5199999999999"><g><svg viewBox="0 0 590.5292733571677 147.68345965435057" height="98.9142530232532" width="395.5199999999999"><g transform="matrix(1,0,0,1,0,20.410666276397222)"><svg viewBox="0 0 395.52 106.86212710155613" height="106.86212710155613" width="395.52"><g id="SvgjsG1536"><svg viewBox="0 0 395.52 106.86212710155613" height="106.86212710155613" width="395.52" id="SvgjsSvg1535"><g><svg viewBox="0 0 395.52 73.34617283950617" height="73.34617283950617" width="395.52"><g transform="matrix(1,0,0,1,0,0)"><svg width="395.52" viewBox="0.75 -35.55 201.63 36.05" height="73.34617283950617" data-palette-color="url(#40351f49-e0b1-4176-a626-ce40ac40fb34)"><g class="wordmark-text-0" data-fill-palette-color="primary" id="SvgjsG1534"></g></svg></g></svg></g><g transform="matrix(1,0,0,1,163.310208,90.66144393876543)"><svg viewBox="0 0 232.209792 16.200683162790696" height="16.200683162790696" width="232.209792"><g transform="matrix(1,0,0,1,0,0)"><svg width="232.209792" viewBox="1.75 -36 644.94 45" height="16.200683162790696" data-palette-color="url(#442dad4b-711d-4597-acc9-62f2b826ba9a)"></svg></g></svg></g></svg></g></svg></g><g transform="matrix(1,0,0,1,412.8352710992592,0)"><svg viewBox="0 0 177.6940022579084 147.68345965435057" height="147.68345965435057" width="177.6940022579084"><g><svg xmlns="http://www.w3.org/2000/svg" xmlns:xlink="http://www.w3.org/1999/xlink" version="1.1" x="0" y="0" viewBox="5 12.6 90 74.80000000000001" enable-background="new 0 0 100 100" xml:space="preserve" height="147.68345965435057" width="177.6940022579084" class="icon-icon-0" data-fill-palette-color="accent" id="SvgjsSvg1533"><g fill="white"><g fill="white"><path d="M28.7 40c6.2 3 9.8 3.8 13.4 8.3 0.9 1.1 1.3 0.8 1.1-0.2-1.8-8.2-9.6-20.5-21.5-26.1C26.9 28.9 21.6 36.5 28.7 40z" fill="white"></path><path d="M40.2 51.5c-4.8-6.9-16.9-15.1-30-15.6 7.5 4.4 5.6 13.4 13.5 13.9 6.9 0.4 10.5-0.3 15.5 2.4C40.5 52.8 40.8 52.3 40.2 51.5z" fill="white"></path><path d="M5 53.2c8.6 1.1 10.4 10.2 17.9 7.4 6.5-2.3 9.5-4.4 15.2-3.9 1.5 0.1 1.5-0.4 0.6-0.9C31.5 51.4 17.2 48.5 5 53.2z" fill="white"></path><path d="M7 71.2c8.3-2.3 13.5 5.3 19.4-0.2 5-4.7 7-7.8 12.5-9.6 1.4-0.5 1.2-1 0.2-1.1C30.8 59.1 16.4 62.1 7 71.2z" fill="white"></path><path d="M16.4 87.4c6.7-5.5 14.5-0.6 17.7-8 2.7-6.3 3.3-10 7.5-13.8 1.1-1 0.7-1.4-0.3-1.1C33.2 66.8 21.3 75.3 16.4 87.4z" fill="white"></path><path d="M58.4 65.2c3.1 7.8 12.9 18.6 25.5 22.2-6.2-6-2.3-14.4-9.9-16.7-6.6-2-10.3-2.1-14.6-5.9C58.3 63.8 58 64.2 58.4 65.2z" fill="white"></path><path d="M60.9 61c6.1 5.8 19.5 11.7 32.4 9.6-8.2-2.9-8-12.1-15.9-11.1-6.8 0.9-10.3 2.3-15.7 0.6C60.3 59.8 60.2 60.3 60.9 61z" fill="white"></path><path d="M95 51.6c-8.6 0.7-12.3-7.7-19-3.5-5.8 3.7-8.4 6.3-14 7.1-1.4 0.2-1.4 0.7-0.4 1C69.4 59 84.1 58.8 95 51.6z" fill="white"></path><path d="M88.7 33.6c-7.6 4.2-14.4-2-18.8 4.7-3.8 5.7-5 9.2-9.9 12.2-1.2 0.7-0.9 1.2 0.1 1.1C68.4 50.9 81.7 44.6 88.7 33.6z" fill="white"></path><path d="M75.4 19.7c-5.1 7-13.9 4.2-15.2 12.1-1.1 6.8-0.8 10.5-3.9 15.2-0.8 1.2-0.3 1.5 0.5 1C64.2 43.8 73.7 32.7 75.4 19.7z" fill="white"></path><path d="M57.5 12.6c-1.8 8.5-10.9 9.6-8.8 17.3 1.9 6.6 3.7 9.9 2.8 15.5-0.2 1.4 0.3 1.5 0.9 0.7C57.3 39.2 61.3 25.1 57.5 12.6z" fill="white"></path><path d="M38.2 13.6c1.9 8.5-5.9 13.3-0.7 19.4 4.4 5.3 7.5 7.4 9 12.9 0.4 1.4 0.9 1.3 1.1 0.3C49.2 37.8 46.9 23.4 38.2 13.6z" fill="white"></path></g><path d="M46.5 65.2c-0.1 1.9-0.1 4.1-0.1 6.6 0 1.8 0.3 4.4 0.7 6.9 1.4-0.5 3.1-0.7 4.7-0.6-0.2-2-0.2-4.1-0.3-6.2 0-2 0.1-4.1 0.3-6.2 2.6-1.2 4.5-4.3 4.7-8.2 0.2-4.9-2.6-9-6.4-9.2-3.7-0.1-6.9 3.7-7 8.7C42.9 60.6 44.3 63.7 46.5 65.2z" fill="white"></path></g></svg></g></svg></g></svg></g><defs><mask></mask></defs><mask><g id="SvgjsG1532"><svg viewBox="0 0 395.5199999999999 98.9142530232532" height="98.9142530232532" width="395.5199999999999"><g><svg viewBox="0 0 590.5292733571677 147.68345965435057" height="98.9142530232532" width="395.5199999999999"><g transform="matrix(1,0,0,1,0,20.410666276397222)"><svg viewBox="0 0 395.52 106.86212710155613" height="106.86212710155613" width="395.52"><g id="SvgjsG1531"><svg viewBox="0 0 395.52 106.86212710155613" height="106.86212710155613" width="395.52" id="SvgjsSvg1530"><g><svg viewBox="0 0 395.52 73.34617283950617" height="73.34617283950617" width="395.52"><g transform="matrix(1,0,0,1,0,0)"><svg width="395.52" viewBox="0.75 -35.55 201.63 36.05" height="73.34617283950617" data-palette-color="url(#40351f49-e0b1-4176-a626-ce40ac40fb34)"><g class="wordmark-text-0" data-fill-palette-color="primary" id="SvgjsG1529"><path d="M0.75-34.05L0.75-35 15.45-35Q23-35 26.7-32.83 30.4-30.65 30.4-25.05L30.4-25.05Q30.4-18.85 25.9-16.5L25.9-16.5Q21.7-14.35 14.15-14.35L14.15-14.35 13.75-14.35 13.75-0.95 20-0.95 20 0 0.75 0 0.75-0.95 4-0.95 4-34.05 0.75-34.05ZM15.1-34.05L13.75-34.05 13.75-15.3 14.8-15.3Q17.8-15.3 18.95-17.35 20.1-19.4 20.1-24L20.1-24 20.1-26.4Q20.1-30.65 19.03-32.35 17.95-34.05 15.1-34.05L15.1-34.05ZM56.75-15.45L56.75-15.45 56.75-19.15Q56.75-28.3 55.85-30.7L55.85-30.7Q54.85-33.45 53-34.1L53-34.1Q51.95-34.5 50.45-34.5 48.95-34.5 47.87-34.1 46.8-33.7 46.1-32.7 45.4-31.7 44.97-30.6 44.55-29.5 44.3-27.5L44.3-27.5Q44-24.6 44-18.95L44-18.95 44-15.35Q44-9.25 44.47-6.68 44.95-4.1 45.65-3L45.65-3Q47.2-0.55 50.45-0.55L50.45-0.55Q54.4-0.55 55.57-3.88 56.75-7.2 56.75-15.45ZM50.35 0.5Q42 0.5 37.87-4.03 33.75-8.55 33.75-17.13 33.75-25.7 38.17-30.63 42.6-35.55 50.7-35.55 58.8-35.55 62.92-30.88 67.05-26.2 67.05-17.6 67.05-9 62.87-4.25 58.7 0.5 50.35 0.5ZM71.39-35L100.89-35 101.4-22.45 100.44-22.45Q98.25-29.1 96.55-31.53 94.84-33.95 91.64-33.95L91.64-33.95 91.05-33.95 91.05-1.05 95.3-1.05 95.3 0 77.05 0 77.05-1.05 81.3-1.05 81.3-33.95 80.64-33.95Q77.44-33.95 75.69-31.43 73.94-28.9 71.84-22.45L71.84-22.45 70.89-22.45 71.39-35ZM121.29-0.95L124.84-0.95 121.19-11.75 111.29-11.75 107.44-0.95 111.19-0.95 111.19 0 103.54 0 103.54-0.95 105.89-0.95 118.64-35.3 122.74-35.3 135.34-0.95 137.64-0.95 137.64 0 121.29 0 121.29-0.95ZM120.79-12.85L116.44-25.95 111.74-12.85 120.79-12.85ZM144.51 0.5Q142.34 0.5 141.26-0.78 140.19-2.05 140.19-3.88 140.19-5.7 141.31-6.95 142.44-8.2 144.49-8.2 146.54-8.2 147.74-7.15 148.94-6.1 148.94-4 148.94-1.9 147.81-0.7 146.69 0.5 144.51 0.5ZM169.24-0.95L172.79-0.95 169.14-11.75 159.24-11.75 155.39-0.95 159.14-0.95 159.14 0 151.49 0 151.49-0.95 153.84-0.95 166.59-35.3 170.69-35.3 183.29-0.95 185.59-0.95 185.59 0 169.24 0 169.24-0.95ZM168.74-12.85L164.39-25.95 159.69-12.85 168.74-12.85ZM187.13-34.05L187.13-35 202.38-35 202.38-34.05 199.63-34.05 199.63-0.95 202.38-0.95 202.38 0 187.13 0 187.13-0.95 189.88-0.95 189.88-34.05 187.13-34.05Z" fill="black"></path></g></svg></g></svg></g><g transform="matrix(1,0,0,1,163.310208,90.66144393876543)"><svg viewBox="0 0 232.209792 16.200683162790696" height="16.200683162790696" width="232.209792"><g transform="matrix(1,0,0,1,0,0)"><svg width="232.209792" viewBox="1.75 -36 644.94 45" height="16.200683162790696" data-palette-color="url(#442dad4b-711d-4597-acc9-62f2b826ba9a)"><path d="M9.25-8.25L9.25-8.25Q9.25-3.5 15-3.5L15-3.5 22-3.5 22-13 15-13Q9.25-13 9.25-8.25ZM15-16.5L22-16.5Q22-20.1 20.13-21.8 18.25-23.5 15.25-23.5L15.25-23.5Q13-23.5 10.85-22.83 8.7-22.15 7-21L7-21 5.25-24Q6.35-24.75 7.68-25.3 9-25.85 10.4-26.23 11.8-26.6 13.18-26.8 14.55-27 15.75-27L15.75-27Q18.95-27 21.4-26.25 23.85-25.5 25.55-24.1 27.25-22.7 28.13-20.78 29-18.85 29-16.5L29-16.5 29 0 15 0Q8.2 0 4.98-2.05 1.75-4.1 1.75-8.25L1.75-8.25Q1.75-12.4 4.98-14.45 8.2-16.5 15-16.5L15-16.5ZM42.75-35L42.75 0 35.75 0 35.75-35 42.75-35ZM56.75-35L56.75 0 49.75 0 49.75-35 56.75-35ZM83.49-9.5L83.49-22.5 78.74-22.5 78.74-26 83.49-26 83.49-34 90.49-34 90.49-26 98.24-26 98.24-22.5 90.49-22.5 90.49-9.5Q90.49-7.6 90.92-6.28 91.34-4.95 92.07-4.13 92.79-3.3 93.74-2.9 94.69-2.5 95.74-2.5L95.74-2.5Q97.24-2.5 98.64-2.98 100.04-3.45 100.99-4L100.99-4 102.49-0.75Q100.99 0 99.07 0.5 97.14 1 95.24 1L95.24 1Q89.59 1 86.54-1.8 83.49-4.6 83.49-9.5L83.49-9.5ZM118.99-2.25L118.99-2.25Q120.59-2.25 121.99-2.85 123.39-3.45 124.44-4.73 125.49-6 126.11-8.05 126.74-10.1 126.74-13L126.74-13Q126.74-15.9 126.11-17.95 125.49-20 124.44-21.28 123.39-22.55 121.99-23.15 120.59-23.75 118.99-23.75L118.99-23.75Q117.39-23.75 115.99-23.15 114.59-22.55 113.54-21.28 112.49-20 111.86-17.95 111.24-15.9 111.24-13L111.24-13Q111.24-10.1 111.86-8.05 112.49-6 113.54-4.73 114.59-3.45 115.99-2.85 117.39-2.25 118.99-2.25ZM118.99-27L118.99-27Q122.34-27 125.16-26.08 127.99-25.15 129.99-23.38 131.99-21.6 133.11-18.98 134.24-16.35 134.24-13L134.24-13Q134.24-9.6 133.11-7 131.99-4.4 129.99-2.63 127.99-0.85 125.16 0.08 122.34 1 118.99 1L118.99 1Q115.59 1 112.79 0.08 109.99-0.85 107.99-2.63 105.99-4.4 104.86-7 103.74-9.6 103.74-13L103.74-13Q103.74-16.35 104.86-18.98 105.99-21.6 107.99-23.38 109.99-25.15 112.79-26.08 115.59-27 118.99-27ZM153.99-2.25L153.99-2.25Q155.59-2.25 156.99-2.85 158.39-3.45 159.44-4.73 160.49-6 161.11-8.05 161.74-10.1 161.74-13L161.74-13Q161.74-15.9 161.11-17.95 160.49-20 159.44-21.28 158.39-22.55 156.99-23.15 155.59-23.75 153.99-23.75L153.99-23.75Q152.39-23.75 150.99-23.15 149.59-22.55 148.54-21.28 147.49-20 146.86-17.95 146.24-15.9 146.24-13L146.24-13Q146.24-10.1 146.86-8.05 147.49-6 148.54-4.73 149.59-3.45 150.99-2.85 152.39-2.25 153.99-2.25ZM153.99-27L153.99-27Q157.34-27 160.16-26.08 162.99-25.15 164.99-23.38 166.99-21.6 168.11-18.98 169.24-16.35 169.24-13L169.24-13Q169.24-9.6 168.11-7 166.99-4.4 164.99-2.63 162.99-0.85 160.16 0.08 157.34 1 153.99 1L153.99 1Q150.59 1 147.79 0.08 144.99-0.85 142.99-2.63 140.99-4.4 139.86-7 138.74-9.6 138.74-13L138.74-13Q138.74-16.35 139.86-18.98 140.99-21.6 142.99-23.38 144.99-25.15 147.79-26.08 150.59-27 153.99-27ZM181.98-35L181.98 0 174.98 0 174.98-35 181.98-35ZM194.98-20.5L194.98-20.5Q194.98-19.35 196.01-18.4 197.03-17.45 199.48-16.75L199.48-16.75 207.23-14.5Q210.83-13.45 212.78-11.65 214.73-9.85 214.73-7L214.73-7Q214.73-5.2 213.98-3.73 213.23-2.25 211.53-1.2 209.83-0.15 207.13 0.43 204.43 1 200.48 1L200.48 1Q198.43 1 196.46 0.7 194.48 0.4 192.71-0.13 190.93-0.65 189.48-1.33 188.03-2 186.98-2.75L186.98-2.75 188.98-5.75Q191.08-4.45 193.91-3.48 196.73-2.5 200.48-2.5L200.48-2.5Q204.23-2.5 205.73-3.5 207.23-4.5 207.23-6L207.23-6Q207.23-7.15 206.18-8.08 205.13-9 202.48-9.75L202.48-9.75 194.73-12Q191.53-12.95 189.51-14.73 187.48-16.5 187.48-19.5L187.48-19.5Q187.48-21.1 188.21-22.48 188.93-23.85 190.48-24.85 192.03-25.85 194.43-26.43 196.83-27 200.23-27L200.23-27Q204.38-27 207.76-25.88 211.13-24.75 213.23-23.25L213.23-23.25 211.23-20.25Q209.18-21.55 206.58-22.53 203.98-23.5 200.23-23.5L200.23-23.5Q197.58-23.5 196.28-22.65 194.98-21.8 194.98-20.5ZM244.48-25.5L244.48 0 237.48 0 237.48-25.5 244.48-25.5ZM244.73-32.25L244.73-32.25Q244.73-30.75 243.7-29.63 242.68-28.5 240.98-28.5L240.98-28.5Q239.28-28.5 238.25-29.63 237.23-30.75 237.23-32.25L237.23-32.25Q237.23-33.75 238.25-34.88 239.28-36 240.98-36L240.98-36Q242.63-36 243.68-34.88 244.73-33.75 244.73-32.25ZM279.22-15.75L279.22 0 272.22 0 272.22-15.75Q272.22-19.35 270.42-20.93 268.62-22.5 265.22-22.5L265.22-22.5 258.72-22.5 258.72 0 251.72 0 251.72-26 265.22-26Q272.37-26 275.8-23.43 279.22-20.85 279.22-15.75L279.22-15.75ZM317.47-2.25L317.47-2.25Q319.07-2.25 320.47-2.85 321.87-3.45 322.92-4.73 323.97-6 324.59-8.05 325.22-10.1 325.22-13L325.22-13Q325.22-15.9 324.59-17.95 323.97-20 322.92-21.28 321.87-22.55 320.47-23.15 319.07-23.75 317.47-23.75L317.47-23.75Q315.87-23.75 314.47-23.15 313.07-22.55 312.02-21.28 310.97-20 310.34-17.95 309.72-15.9 309.72-13L309.72-13Q309.72-10.1 310.34-8.05 310.97-6 312.02-4.73 313.07-3.45 314.47-2.85 315.87-2.25 317.47-2.25ZM317.47-27L317.47-27Q320.82-27 323.64-26.08 326.47-25.15 328.47-23.38 330.47-21.6 331.59-18.98 332.72-16.35 332.72-13L332.72-13Q332.72-9.6 331.59-7 330.47-4.4 328.47-2.63 326.47-0.85 323.64 0.08 320.82 1 317.47 1L317.47 1Q314.07 1 311.27 0.08 308.47-0.85 306.47-2.63 304.47-4.4 303.34-7 302.22-9.6 302.22-13L302.22-13Q302.22-16.35 303.34-18.98 304.47-21.6 306.47-23.38 308.47-25.15 311.27-26.08 314.07-27 317.47-27ZM365.97-15.75L365.97 0 358.97 0 358.97-15.75Q358.97-19.35 357.17-20.93 355.37-22.5 351.97-22.5L351.97-22.5 345.47-22.5 345.47 0 338.47 0 338.47-26 351.97-26Q359.12-26 362.54-23.43 365.97-20.85 365.97-15.75L365.97-15.75ZM387.71-2.5L387.71-2.5Q390.16-2.5 392.29-3.35 394.41-4.2 396.46-5.75L396.46-5.75 398.46-2.75Q397.51-1.9 396.24-1.2 394.96-0.5 393.49-0.03 392.01 0.45 390.41 0.73 388.81 1 387.21 1L387.21 1Q383.66 1 380.74 0.08 377.81-0.85 375.76-2.63 373.71-4.4 372.59-7 371.46-9.6 371.46-13L371.46-13Q371.46-16.35 372.54-18.98 373.61-21.6 375.54-23.38 377.46-25.15 380.11-26.08 382.76-27 385.96-27L385.96-27Q388.96-27 391.61-26.1 394.26-25.2 396.21-23.48 398.16-21.75 399.31-19.3 400.46-16.85 400.46-13.75L400.46-13.75 400.46-10.25 379.11-10.25Q379.71-6.1 381.99-4.3 384.26-2.5 387.71-2.5ZM385.96-23.75L385.96-23.75Q384.51-23.75 383.26-23.2 382.01-22.65 381.09-21.45 380.16-20.25 379.59-18.35 379.01-16.45 378.96-13.75L378.96-13.75 392.96-13.75Q392.96-16.35 392.36-18.25 391.76-20.15 390.79-21.38 389.81-22.6 388.54-23.18 387.26-23.75 385.96-23.75ZM436.96-22.5L430.71-22.5 430.71-3.5 436.96-3.5Q438.66-3.5 440.08-4.03 441.51-4.55 442.53-5.7 443.56-6.85 444.13-8.65 444.71-10.45 444.71-13L444.71-13Q444.71-15.55 444.13-17.35 443.56-19.15 442.53-20.3 441.51-21.45 440.08-21.98 438.66-22.5 436.96-22.5L436.96-22.5ZM423.71-26L436.96-26Q440.41-26 443.23-25.1 446.06-24.2 448.06-22.5 450.06-20.8 451.13-18.4 452.21-16 452.21-13L452.21-13Q452.21-10 451.13-7.6 450.06-5.2 448.06-3.5 446.06-1.8 443.23-0.9 440.41 0 436.96 0L436.96 0 430.71 0 430.71 9 423.71 9 423.71-26ZM464.96-35L464.96 0 457.96 0 457.96-35 464.96-35ZM477.7-8.25L477.7-8.25Q477.7-3.5 483.45-3.5L483.45-3.5 490.45-3.5 490.45-13 483.45-13Q477.7-13 477.7-8.25ZM483.45-16.5L490.45-16.5Q490.45-20.1 488.58-21.8 486.7-23.5 483.7-23.5L483.7-23.5Q481.45-23.5 479.3-22.83 477.15-22.15 475.45-21L475.45-21 473.7-24Q474.8-24.75 476.13-25.3 477.45-25.85 478.85-26.23 480.25-26.6 481.63-26.8 483-27 484.2-27L484.2-27Q487.4-27 489.85-26.25 492.3-25.5 494-24.1 495.7-22.7 496.58-20.78 497.45-18.85 497.45-16.5L497.45-16.5 497.45 0 483.45 0Q476.65 0 473.43-2.05 470.2-4.1 470.2-8.25L470.2-8.25Q470.2-12.4 473.43-14.45 476.65-16.5 483.45-16.5L483.45-16.5ZM505.45-9.5L505.45-22.5 500.7-22.5 500.7-26 505.45-26 505.45-34 512.45-34 512.45-26 520.2-26 520.2-22.5 512.45-22.5 512.45-9.5Q512.45-7.6 512.88-6.28 513.3-4.95 514.03-4.13 514.75-3.3 515.7-2.9 516.65-2.5 517.7-2.5L517.7-2.5Q519.2-2.5 520.6-2.98 522-3.45 522.95-4L522.95-4 524.45-0.75Q522.95 0 521.03 0.5 519.1 1 517.2 1L517.2 1Q511.55 1 508.5-1.8 505.45-4.6 505.45-9.5L505.45-9.5ZM529.2-25L529.2-25.5Q529.2-30.4 532.25-33.2 535.3-36 540.95-36L540.95-36Q542.85-36 544.77-35.5 546.7-35 548.2-34.25L548.2-34.25 546.7-31Q545.75-31.55 544.35-32.02 542.95-32.5 541.45-32.5L541.45-32.5Q540.4-32.5 539.45-32.1 538.5-31.7 537.77-30.88 537.05-30.05 536.62-28.7 536.2-27.35 536.2-25.5L536.2-25.5 536.2-25 543.95-25 543.95-21.5 536.2-21.5 536.2 0 529.2 0 529.2-21.5 524.45-21.5 524.45-25 529.2-25ZM561.94-2.25L561.94-2.25Q563.54-2.25 564.94-2.85 566.34-3.45 567.39-4.73 568.44-6 569.07-8.05 569.69-10.1 569.69-13L569.69-13Q569.69-15.9 569.07-17.95 568.44-20 567.39-21.28 566.34-22.55 564.94-23.15 563.54-23.75 561.94-23.75L561.94-23.75Q560.34-23.75 558.94-23.15 557.54-22.55 556.49-21.28 555.44-20 554.82-17.95 554.19-15.9 554.19-13L554.19-13Q554.19-10.1 554.82-8.05 555.44-6 556.49-4.73 557.54-3.45 558.94-2.85 560.34-2.25 561.94-2.25ZM561.94-27L561.94-27Q565.29-27 568.12-26.08 570.94-25.15 572.94-23.38 574.94-21.6 576.07-18.98 577.19-16.35 577.19-13L577.19-13Q577.19-9.6 576.07-7 574.94-4.4 572.94-2.63 570.94-0.85 568.12 0.08 565.29 1 561.94 1L561.94 1Q558.54 1 555.74 0.08 552.94-0.85 550.94-2.63 548.94-4.4 547.82-7 546.69-9.6 546.69-13L546.69-13Q546.69-16.35 547.82-18.98 548.94-21.6 550.94-23.38 552.94-25.15 555.74-26.08 558.54-27 561.94-27ZM602.69-26L602.69-22.5 596.69-22.5Q593.29-22.5 591.49-20.68 589.69-18.85 589.69-15.25L589.69-15.25 589.69 0 582.69 0 582.69-15.25Q582.69-20.35 585.92-23.18 589.14-26 595.19-26L595.19-26 602.69-26ZM606.69 0L606.69-26 632.69-26Q639.84-26 643.26-23.43 646.69-20.85 646.69-15.75L646.69-15.75 646.69 0 639.69 0 639.69-15.75Q639.69-19.35 637.89-20.93 636.09-22.5 632.69-22.5L632.69-22.5 630.19-22.5 630.19 0 623.19 0 623.19-22.5 613.69-22.5 613.69 0 606.69 0Z" opacity="1" transform="matrix(1,0,0,1,0,0)" fill="black" class="slogan-text-1" id="SvgjsPath1528"></path></svg></g></svg></g></svg></g></svg></g><g transform="matrix(1,0,0,1,412.8352710992592,0)"><svg viewBox="0 0 177.6940022579084 147.68345965435057" height="147.68345965435057" width="177.6940022579084"><g><svg xmlns="http://www.w3.org/2000/svg" xmlns:xlink="http://www.w3.org/1999/xlink" version="1.1" x="0" y="0" viewBox="5 12.6 90 74.80000000000001" enable-background="new 0 0 100 100" xml:space="preserve" height="147.68345965435057" width="177.6940022579084" class="icon-icon-0" data-fill-palette-color="accent" id="SvgjsSvg1527"><g fill="black"><g fill="black"><path d="M28.7 40c6.2 3 9.8 3.8 13.4 8.3 0.9 1.1 1.3 0.8 1.1-0.2-1.8-8.2-9.6-20.5-21.5-26.1C26.9 28.9 21.6 36.5 28.7 40z" fill="black"></path><path d="M40.2 51.5c-4.8-6.9-16.9-15.1-30-15.6 7.5 4.4 5.6 13.4 13.5 13.9 6.9 0.4 10.5-0.3 15.5 2.4C40.5 52.8 40.8 52.3 40.2 51.5z" fill="black"></path><path d="M5 53.2c8.6 1.1 10.4 10.2 17.9 7.4 6.5-2.3 9.5-4.4 15.2-3.9 1.5 0.1 1.5-0.4 0.6-0.9C31.5 51.4 17.2 48.5 5 53.2z" fill="black"></path><path d="M7 71.2c8.3-2.3 13.5 5.3 19.4-0.2 5-4.7 7-7.8 12.5-9.6 1.4-0.5 1.2-1 0.2-1.1C30.8 59.1 16.4 62.1 7 71.2z" fill="black"></path><path d="M16.4 87.4c6.7-5.5 14.5-0.6 17.7-8 2.7-6.3 3.3-10 7.5-13.8 1.1-1 0.7-1.4-0.3-1.1C33.2 66.8 21.3 75.3 16.4 87.4z" fill="black"></path><path d="M58.4 65.2c3.1 7.8 12.9 18.6 25.5 22.2-6.2-6-2.3-14.4-9.9-16.7-6.6-2-10.3-2.1-14.6-5.9C58.3 63.8 58 64.2 58.4 65.2z" fill="black"></path><path d="M60.9 61c6.1 5.8 19.5 11.7 32.4 9.6-8.2-2.9-8-12.1-15.9-11.1-6.8 0.9-10.3 2.3-15.7 0.6C60.3 59.8 60.2 60.3 60.9 61z" fill="black"></path><path d="M95 51.6c-8.6 0.7-12.3-7.7-19-3.5-5.8 3.7-8.4 6.3-14 7.1-1.4 0.2-1.4 0.7-0.4 1C69.4 59 84.1 58.8 95 51.6z" fill="black"></path><path d="M88.7 33.6c-7.6 4.2-14.4-2-18.8 4.7-3.8 5.7-5 9.2-9.9 12.2-1.2 0.7-0.9 1.2 0.1 1.1C68.4 50.9 81.7 44.6 88.7 33.6z" fill="black"></path><path d="M75.4 19.7c-5.1 7-13.9 4.2-15.2 12.1-1.1 6.8-0.8 10.5-3.9 15.2-0.8 1.2-0.3 1.5 0.5 1C64.2 43.8 73.7 32.7 75.4 19.7z" fill="black"></path><path d="M57.5 12.6c-1.8 8.5-10.9 9.6-8.8 17.3 1.9 6.6 3.7 9.9 2.8 15.5-0.2 1.4 0.3 1.5 0.9 0.7C57.3 39.2 61.3 25.1 57.5 12.6z" fill="black"></path><path d="M38.2 13.6c1.9 8.5-5.9 13.3-0.7 19.4 4.4 5.3 7.5 7.4 9 12.9 0.4 1.4 0.9 1.3 1.1 0.3C49.2 37.8 46.9 23.4 38.2 13.6z" fill="black"></path></g><path d="M46.5 65.2c-0.1 1.9-0.1 4.1-0.1 6.6 0 1.8 0.3 4.4 0.7 6.9 1.4-0.5 3.1-0.7 4.7-0.6-0.2-2-0.2-4.1-0.3-6.2 0-2 0.1-4.1 0.3-6.2 2.6-1.2 4.5-4.3 4.7-8.2 0.2-4.9-2.6-9-6.4-9.2-3.7-0.1-6.9 3.7-7 8.7C42.9 60.6 44.3 63.7 46.5 65.2z" fill="black"></path></g></svg></g></svg></g></svg></g><defs><mask></mask></defs></svg><rect width="395.5199999999999" height="98.9142530232532" fill="black" stroke="none" visibility="hidden"></rect></g></mask><mask><g id="SvgjsG1526"><svg viewBox="0 0 395.5199999999999 98.9142530232532" height="98.9142530232532" width="395.5199999999999"><g><svg viewBox="0 0 590.5292733571677 147.68345965435057" height="98.9142530232532" width="395.5199999999999"><g transform="matrix(1,0,0,1,0,20.410666276397222)"><svg viewBox="0 0 395.52 106.86212710155613" height="106.86212710155613" width="395.52"><g id="SvgjsG1525"><svg viewBox="0 0 395.52 106.86212710155613" height="106.86212710155613" width="395.52" id="SvgjsSvg1524"><g><svg viewBox="0 0 395.52 73.34617283950617" height="73.34617283950617" width="395.52"><g transform="matrix(1,0,0,1,0,0)"><svg width="395.52" viewBox="0.75 -35.55 201.63 36.05" height="73.34617283950617" data-palette-color="url(#40351f49-e0b1-4176-a626-ce40ac40fb34)"><g class="wordmark-text-0" data-fill-palette-color="primary" id="SvgjsG1523"></g></svg></g></svg></g><g transform="matrix(1,0,0,1,163.310208,90.66144393876543)"><svg viewBox="0 0 232.209792 16.200683162790696" height="16.200683162790696" width="232.209792"><g transform="matrix(1,0,0,1,0,0)"><svg width="232.209792" viewBox="1.75 -36 644.94 45" height="16.200683162790696" data-palette-color="url(#442dad4b-711d-4597-acc9-62f2b826ba9a)"><path d="M9.25-8.25L9.25-8.25Q9.25-3.5 15-3.5L15-3.5 22-3.5 22-13 15-13Q9.25-13 9.25-8.25ZM15-16.5L22-16.5Q22-20.1 20.13-21.8 18.25-23.5 15.25-23.5L15.25-23.5Q13-23.5 10.85-22.83 8.7-22.15 7-21L7-21 5.25-24Q6.35-24.75 7.68-25.3 9-25.85 10.4-26.23 11.8-26.6 13.18-26.8 14.55-27 15.75-27L15.75-27Q18.95-27 21.4-26.25 23.85-25.5 25.55-24.1 27.25-22.7 28.13-20.78 29-18.85 29-16.5L29-16.5 29 0 15 0Q8.2 0 4.98-2.05 1.75-4.1 1.75-8.25L1.75-8.25Q1.75-12.4 4.98-14.45 8.2-16.5 15-16.5L15-16.5ZM42.75-35L42.75 0 35.75 0 35.75-35 42.75-35ZM56.75-35L56.75 0 49.75 0 49.75-35 56.75-35ZM83.49-9.5L83.49-22.5 78.74-22.5 78.74-26 83.49-26 83.49-34 90.49-34 90.49-26 98.24-26 98.24-22.5 90.49-22.5 90.49-9.5Q90.49-7.6 90.92-6.28 91.34-4.95 92.07-4.13 92.79-3.3 93.74-2.9 94.69-2.5 95.74-2.5L95.74-2.5Q97.24-2.5 98.64-2.98 100.04-3.45 100.99-4L100.99-4 102.49-0.75Q100.99 0 99.07 0.5 97.14 1 95.24 1L95.24 1Q89.59 1 86.54-1.8 83.49-4.6 83.49-9.5L83.49-9.5ZM118.99-2.25L118.99-2.25Q120.59-2.25 121.99-2.85 123.39-3.45 124.44-4.73 125.49-6 126.11-8.05 126.74-10.1 126.74-13L126.74-13Q126.74-15.9 126.11-17.95 125.49-20 124.44-21.28 123.39-22.55 121.99-23.15 120.59-23.75 118.99-23.75L118.99-23.75Q117.39-23.75 115.99-23.15 114.59-22.55 113.54-21.28 112.49-20 111.86-17.95 111.24-15.9 111.24-13L111.24-13Q111.24-10.1 111.86-8.05 112.49-6 113.54-4.73 114.59-3.45 115.99-2.85 117.39-2.25 118.99-2.25ZM118.99-27L118.99-27Q122.34-27 125.16-26.08 127.99-25.15 129.99-23.38 131.99-21.6 133.11-18.98 134.24-16.35 134.24-13L134.24-13Q134.24-9.6 133.11-7 131.99-4.4 129.99-2.63 127.99-0.85 125.16 0.08 122.34 1 118.99 1L118.99 1Q115.59 1 112.79 0.08 109.99-0.85 107.99-2.63 105.99-4.4 104.86-7 103.74-9.6 103.74-13L103.74-13Q103.74-16.35 104.86-18.98 105.99-21.6 107.99-23.38 109.99-25.15 112.79-26.08 115.59-27 118.99-27ZM153.99-2.25L153.99-2.25Q155.59-2.25 156.99-2.85 158.39-3.45 159.44-4.73 160.49-6 161.11-8.05 161.74-10.1 161.74-13L161.74-13Q161.74-15.9 161.11-17.95 160.49-20 159.44-21.28 158.39-22.55 156.99-23.15 155.59-23.75 153.99-23.75L153.99-23.75Q152.39-23.75 150.99-23.15 149.59-22.55 148.54-21.28 147.49-20 146.86-17.95 146.24-15.9 146.24-13L146.24-13Q146.24-10.1 146.86-8.05 147.49-6 148.54-4.73 149.59-3.45 150.99-2.85 152.39-2.25 153.99-2.25ZM153.99-27L153.99-27Q157.34-27 160.16-26.08 162.99-25.15 164.99-23.38 166.99-21.6 168.11-18.98 169.24-16.35 169.24-13L169.24-13Q169.24-9.6 168.11-7 166.99-4.4 164.99-2.63 162.99-0.85 160.16 0.08 157.34 1 153.99 1L153.99 1Q150.59 1 147.79 0.08 144.99-0.85 142.99-2.63 140.99-4.4 139.86-7 138.74-9.6 138.74-13L138.74-13Q138.74-16.35 139.86-18.98 140.99-21.6 142.99-23.38 144.99-25.15 147.79-26.08 150.59-27 153.99-27ZM181.98-35L181.98 0 174.98 0 174.98-35 181.98-35ZM194.98-20.5L194.98-20.5Q194.98-19.35 196.01-18.4 197.03-17.45 199.48-16.75L199.48-16.75 207.23-14.5Q210.83-13.45 212.78-11.65 214.73-9.85 214.73-7L214.73-7Q214.73-5.2 213.98-3.73 213.23-2.25 211.53-1.2 209.83-0.15 207.13 0.43 204.43 1 200.48 1L200.48 1Q198.43 1 196.46 0.7 194.48 0.4 192.71-0.13 190.93-0.65 189.48-1.33 188.03-2 186.98-2.75L186.98-2.75 188.98-5.75Q191.08-4.45 193.91-3.48 196.73-2.5 200.48-2.5L200.48-2.5Q204.23-2.5 205.73-3.5 207.23-4.5 207.23-6L207.23-6Q207.23-7.15 206.18-8.08 205.13-9 202.48-9.75L202.48-9.75 194.73-12Q191.53-12.95 189.51-14.73 187.48-16.5 187.48-19.5L187.48-19.5Q187.48-21.1 188.21-22.48 188.93-23.85 190.48-24.85 192.03-25.85 194.43-26.43 196.83-27 200.23-27L200.23-27Q204.38-27 207.76-25.88 211.13-24.75 213.23-23.25L213.23-23.25 211.23-20.25Q209.18-21.55 206.58-22.53 203.98-23.5 200.23-23.5L200.23-23.5Q197.58-23.5 196.28-22.65 194.98-21.8 194.98-20.5ZM244.48-25.5L244.48 0 237.48 0 237.48-25.5 244.48-25.5ZM244.73-32.25L244.73-32.25Q244.73-30.75 243.7-29.63 242.68-28.5 240.98-28.5L240.98-28.5Q239.28-28.5 238.25-29.63 237.23-30.75 237.23-32.25L237.23-32.25Q237.23-33.75 238.25-34.88 239.28-36 240.98-36L240.98-36Q242.63-36 243.68-34.88 244.73-33.75 244.73-32.25ZM279.22-15.75L279.22 0 272.22 0 272.22-15.75Q272.22-19.35 270.42-20.93 268.62-22.5 265.22-22.5L265.22-22.5 258.72-22.5 258.72 0 251.72 0 251.72-26 265.22-26Q272.37-26 275.8-23.43 279.22-20.85 279.22-15.75L279.22-15.75ZM317.47-2.25L317.47-2.25Q319.07-2.25 320.47-2.85 321.87-3.45 322.92-4.73 323.97-6 324.59-8.05 325.22-10.1 325.22-13L325.22-13Q325.22-15.9 324.59-17.95 323.97-20 322.92-21.28 321.87-22.55 320.47-23.15 319.07-23.75 317.47-23.75L317.47-23.75Q315.87-23.75 314.47-23.15 313.07-22.55 312.02-21.28 310.97-20 310.34-17.95 309.72-15.9 309.72-13L309.72-13Q309.72-10.1 310.34-8.05 310.97-6 312.02-4.73 313.07-3.45 314.47-2.85 315.87-2.25 317.47-2.25ZM317.47-27L317.47-27Q320.82-27 323.64-26.08 326.47-25.15 328.47-23.38 330.47-21.6 331.59-18.98 332.72-16.35 332.72-13L332.72-13Q332.72-9.6 331.59-7 330.47-4.4 328.47-2.63 326.47-0.85 323.64 0.08 320.82 1 317.47 1L317.47 1Q314.07 1 311.27 0.08 308.47-0.85 306.47-2.63 304.47-4.4 303.34-7 302.22-9.6 302.22-13L302.22-13Q302.22-16.35 303.34-18.98 304.47-21.6 306.47-23.38 308.47-25.15 311.27-26.08 314.07-27 317.47-27ZM365.97-15.75L365.97 0 358.97 0 358.97-15.75Q358.97-19.35 357.17-20.93 355.37-22.5 351.97-22.5L351.97-22.5 345.47-22.5 345.47 0 338.47 0 338.47-26 351.97-26Q359.12-26 362.54-23.43 365.97-20.85 365.97-15.75L365.97-15.75ZM387.71-2.5L387.71-2.5Q390.16-2.5 392.29-3.35 394.41-4.2 396.46-5.75L396.46-5.75 398.46-2.75Q397.51-1.9 396.24-1.2 394.96-0.5 393.49-0.03 392.01 0.45 390.41 0.73 388.81 1 387.21 1L387.21 1Q383.66 1 380.74 0.08 377.81-0.85 375.76-2.63 373.71-4.4 372.59-7 371.46-9.6 371.46-13L371.46-13Q371.46-16.35 372.54-18.98 373.61-21.6 375.54-23.38 377.46-25.15 380.11-26.08 382.76-27 385.96-27L385.96-27Q388.96-27 391.61-26.1 394.26-25.2 396.21-23.48 398.16-21.75 399.31-19.3 400.46-16.85 400.46-13.75L400.46-13.75 400.46-10.25 379.11-10.25Q379.71-6.1 381.99-4.3 384.26-2.5 387.71-2.5ZM385.96-23.75L385.96-23.75Q384.51-23.75 383.26-23.2 382.01-22.65 381.09-21.45 380.16-20.25 379.59-18.35 379.01-16.45 378.96-13.75L378.96-13.75 392.96-13.75Q392.96-16.35 392.36-18.25 391.76-20.15 390.79-21.38 389.81-22.6 388.54-23.18 387.26-23.75 385.96-23.75ZM436.96-22.5L430.71-22.5 430.71-3.5 436.96-3.5Q438.66-3.5 440.08-4.03 441.51-4.55 442.53-5.7 443.56-6.85 444.13-8.65 444.71-10.45 444.71-13L444.71-13Q444.71-15.55 444.13-17.35 443.56-19.15 442.53-20.3 441.51-21.45 440.08-21.98 438.66-22.5 436.96-22.5L436.96-22.5ZM423.71-26L436.96-26Q440.41-26 443.23-25.1 446.06-24.2 448.06-22.5 450.06-20.8 451.13-18.4 452.21-16 452.21-13L452.21-13Q452.21-10 451.13-7.6 450.06-5.2 448.06-3.5 446.06-1.8 443.23-0.9 440.41 0 436.96 0L436.96 0 430.71 0 430.71 9 423.71 9 423.71-26ZM464.96-35L464.96 0 457.96 0 457.96-35 464.96-35ZM477.7-8.25L477.7-8.25Q477.7-3.5 483.45-3.5L483.45-3.5 490.45-3.5 490.45-13 483.45-13Q477.7-13 477.7-8.25ZM483.45-16.5L490.45-16.5Q490.45-20.1 488.58-21.8 486.7-23.5 483.7-23.5L483.7-23.5Q481.45-23.5 479.3-22.83 477.15-22.15 475.45-21L475.45-21 473.7-24Q474.8-24.75 476.13-25.3 477.45-25.85 478.85-26.23 480.25-26.6 481.63-26.8 483-27 484.2-27L484.2-27Q487.4-27 489.85-26.25 492.3-25.5 494-24.1 495.7-22.7 496.58-20.78 497.45-18.85 497.45-16.5L497.45-16.5 497.45 0 483.45 0Q476.65 0 473.43-2.05 470.2-4.1 470.2-8.25L470.2-8.25Q470.2-12.4 473.43-14.45 476.65-16.5 483.45-16.5L483.45-16.5ZM505.45-9.5L505.45-22.5 500.7-22.5 500.7-26 505.45-26 505.45-34 512.45-34 512.45-26 520.2-26 520.2-22.5 512.45-22.5 512.45-9.5Q512.45-7.6 512.88-6.28 513.3-4.95 514.03-4.13 514.75-3.3 515.7-2.9 516.65-2.5 517.7-2.5L517.7-2.5Q519.2-2.5 520.6-2.98 522-3.45 522.95-4L522.95-4 524.45-0.75Q522.95 0 521.03 0.5 519.1 1 517.2 1L517.2 1Q511.55 1 508.5-1.8 505.45-4.6 505.45-9.5L505.45-9.5ZM529.2-25L529.2-25.5Q529.2-30.4 532.25-33.2 535.3-36 540.95-36L540.95-36Q542.85-36 544.77-35.5 546.7-35 548.2-34.25L548.2-34.25 546.7-31Q545.75-31.55 544.35-32.02 542.95-32.5 541.45-32.5L541.45-32.5Q540.4-32.5 539.45-32.1 538.5-31.7 537.77-30.88 537.05-30.05 536.62-28.7 536.2-27.35 536.2-25.5L536.2-25.5 536.2-25 543.95-25 543.95-21.5 536.2-21.5 536.2 0 529.2 0 529.2-21.5 524.45-21.5 524.45-25 529.2-25ZM561.94-2.25L561.94-2.25Q563.54-2.25 564.94-2.85 566.34-3.45 567.39-4.73 568.44-6 569.07-8.05 569.69-10.1 569.69-13L569.69-13Q569.69-15.9 569.07-17.95 568.44-20 567.39-21.28 566.34-22.55 564.94-23.15 563.54-23.75 561.94-23.75L561.94-23.75Q560.34-23.75 558.94-23.15 557.54-22.55 556.49-21.28 555.44-20 554.82-17.95 554.19-15.9 554.19-13L554.19-13Q554.19-10.1 554.82-8.05 555.44-6 556.49-4.73 557.54-3.45 558.94-2.85 560.34-2.25 561.94-2.25ZM561.94-27L561.94-27Q565.29-27 568.12-26.08 570.94-25.15 572.94-23.38 574.94-21.6 576.07-18.98 577.19-16.35 577.19-13L577.19-13Q577.19-9.6 576.07-7 574.94-4.4 572.94-2.63 570.94-0.85 568.12 0.08 565.29 1 561.94 1L561.94 1Q558.54 1 555.74 0.08 552.94-0.85 550.94-2.63 548.94-4.4 547.82-7 546.69-9.6 546.69-13L546.69-13Q546.69-16.35 547.82-18.98 548.94-21.6 550.94-23.38 552.94-25.15 555.74-26.08 558.54-27 561.94-27ZM602.69-26L602.69-22.5 596.69-22.5Q593.29-22.5 591.49-20.68 589.69-18.85 589.69-15.25L589.69-15.25 589.69 0 582.69 0 582.69-15.25Q582.69-20.35 585.92-23.18 589.14-26 595.19-26L595.19-26 602.69-26ZM606.69 0L606.69-26 632.69-26Q639.84-26 643.26-23.43 646.69-20.85 646.69-15.75L646.69-15.75 646.69 0 639.69 0 639.69-15.75Q639.69-19.35 637.89-20.93 636.09-22.5 632.69-22.5L632.69-22.5 630.19-22.5 630.19 0 623.19 0 623.19-22.5 613.69-22.5 613.69 0 606.69 0Z" opacity="1" transform="matrix(1,0,0,1,0,0)" fill="black" class="slogan-text-1" id="SvgjsPath1522"></path></svg></g></svg></g></svg></g></svg></g><g transform="matrix(1,0,0,1,412.8352710992592,0)"><svg viewBox="0 0 177.6940022579084 147.68345965435057" height="147.68345965435057" width="177.6940022579084"><g><svg xmlns="http://www.w3.org/2000/svg" xmlns:xlink="http://www.w3.org/1999/xlink" version="1.1" x="0" y="0" viewBox="5 12.6 90 74.80000000000001" enable-background="new 0 0 100 100" xml:space="preserve" height="147.68345965435057" width="177.6940022579084" class="icon-icon-0" data-fill-palette-color="accent" id="SvgjsSvg1521"><g fill="black"><g fill="black"><path d="M28.7 40c6.2 3 9.8 3.8 13.4 8.3 0.9 1.1 1.3 0.8 1.1-0.2-1.8-8.2-9.6-20.5-21.5-26.1C26.9 28.9 21.6 36.5 28.7 40z" fill="black"></path><path d="M40.2 51.5c-4.8-6.9-16.9-15.1-30-15.6 7.5 4.4 5.6 13.4 13.5 13.9 6.9 0.4 10.5-0.3 15.5 2.4C40.5 52.8 40.8 52.3 40.2 51.5z" fill="black"></path><path d="M5 53.2c8.6 1.1 10.4 10.2 17.9 7.4 6.5-2.3 9.5-4.4 15.2-3.9 1.5 0.1 1.5-0.4 0.6-0.9C31.5 51.4 17.2 48.5 5 53.2z" fill="black"></path><path d="M7 71.2c8.3-2.3 13.5 5.3 19.4-0.2 5-4.7 7-7.8 12.5-9.6 1.4-0.5 1.2-1 0.2-1.1C30.8 59.1 16.4 62.1 7 71.2z" fill="black"></path><path d="M16.4 87.4c6.7-5.5 14.5-0.6 17.7-8 2.7-6.3 3.3-10 7.5-13.8 1.1-1 0.7-1.4-0.3-1.1C33.2 66.8 21.3 75.3 16.4 87.4z" fill="black"></path><path d="M58.4 65.2c3.1 7.8 12.9 18.6 25.5 22.2-6.2-6-2.3-14.4-9.9-16.7-6.6-2-10.3-2.1-14.6-5.9C58.3 63.8 58 64.2 58.4 65.2z" fill="black"></path><path d="M60.9 61c6.1 5.8 19.5 11.7 32.4 9.6-8.2-2.9-8-12.1-15.9-11.1-6.8 0.9-10.3 2.3-15.7 0.6C60.3 59.8 60.2 60.3 60.9 61z" fill="black"></path><path d="M95 51.6c-8.6 0.7-12.3-7.7-19-3.5-5.8 3.7-8.4 6.3-14 7.1-1.4 0.2-1.4 0.7-0.4 1C69.4 59 84.1 58.8 95 51.6z" fill="black"></path><path d="M88.7 33.6c-7.6 4.2-14.4-2-18.8 4.7-3.8 5.7-5 9.2-9.9 12.2-1.2 0.7-0.9 1.2 0.1 1.1C68.4 50.9 81.7 44.6 88.7 33.6z" fill="black"></path><path d="M75.4 19.7c-5.1 7-13.9 4.2-15.2 12.1-1.1 6.8-0.8 10.5-3.9 15.2-0.8 1.2-0.3 1.5 0.5 1C64.2 43.8 73.7 32.7 75.4 19.7z" fill="black"></path><path d="M57.5 12.6c-1.8 8.5-10.9 9.6-8.8 17.3 1.9 6.6 3.7 9.9 2.8 15.5-0.2 1.4 0.3 1.5 0.9 0.7C57.3 39.2 61.3 25.1 57.5 12.6z" fill="black"></path><path d="M38.2 13.6c1.9 8.5-5.9 13.3-0.7 19.4 4.4 5.3 7.5 7.4 9 12.9 0.4 1.4 0.9 1.3 1.1 0.3C49.2 37.8 46.9 23.4 38.2 13.6z" fill="black"></path></g><path d="M46.5 65.2c-0.1 1.9-0.1 4.1-0.1 6.6 0 1.8 0.3 4.4 0.7 6.9 1.4-0.5 3.1-0.7 4.7-0.6-0.2-2-0.2-4.1-0.3-6.2 0-2 0.1-4.1 0.3-6.2 2.6-1.2 4.5-4.3 4.7-8.2 0.2-4.9-2.6-9-6.4-9.2-3.7-0.1-6.9 3.7-7 8.7C42.9 60.6 44.3 63.7 46.5 65.2z" fill="black"></path></g></svg></g></svg></g></svg></g><defs><mask></mask></defs><mask><g id="SvgjsG1520"><svg viewBox="0 0 395.5199999999999 98.9142530232532" height="98.9142530232532" width="395.5199999999999"><g><svg viewBox="0 0 590.5292733571677 147.68345965435057" height="98.9142530232532" width="395.5199999999999"><g transform="matrix(1,0,0,1,0,20.410666276397222)"><svg viewBox="0 0 395.52 106.86212710155613" height="106.86212710155613" width="395.52"><g id="SvgjsG1519"><svg viewBox="0 0 395.52 106.86212710155613" height="106.86212710155613" width="395.52" id="SvgjsSvg1518"><g><svg viewBox="0 0 395.52 73.34617283950617" height="73.34617283950617" width="395.52"><g transform="matrix(1,0,0,1,0,0)"><svg width="395.52" viewBox="0.75 -35.55 201.63 36.05" height="73.34617283950617" data-palette-color="url(#40351f49-e0b1-4176-a626-ce40ac40fb34)"><g class="wordmark-text-0" data-fill-palette-color="primary" id="SvgjsG1517"><path d="M0.75-34.05L0.75-35 15.45-35Q23-35 26.7-32.83 30.4-30.65 30.4-25.05L30.4-25.05Q30.4-18.85 25.9-16.5L25.9-16.5Q21.7-14.35 14.15-14.35L14.15-14.35 13.75-14.35 13.75-0.95 20-0.95 20 0 0.75 0 0.75-0.95 4-0.95 4-34.05 0.75-34.05ZM15.1-34.05L13.75-34.05 13.75-15.3 14.8-15.3Q17.8-15.3 18.95-17.35 20.1-19.4 20.1-24L20.1-24 20.1-26.4Q20.1-30.65 19.03-32.35 17.95-34.05 15.1-34.05L15.1-34.05ZM56.75-15.45L56.75-15.45 56.75-19.15Q56.75-28.3 55.85-30.7L55.85-30.7Q54.85-33.45 53-34.1L53-34.1Q51.95-34.5 50.45-34.5 48.95-34.5 47.87-34.1 46.8-33.7 46.1-32.7 45.4-31.7 44.97-30.6 44.55-29.5 44.3-27.5L44.3-27.5Q44-24.6 44-18.95L44-18.95 44-15.35Q44-9.25 44.47-6.68 44.95-4.1 45.65-3L45.65-3Q47.2-0.55 50.45-0.55L50.45-0.55Q54.4-0.55 55.57-3.88 56.75-7.2 56.75-15.45ZM50.35 0.5Q42 0.5 37.87-4.03 33.75-8.55 33.75-17.13 33.75-25.7 38.17-30.63 42.6-35.55 50.7-35.55 58.8-35.55 62.92-30.88 67.05-26.2 67.05-17.6 67.05-9 62.87-4.25 58.7 0.5 50.35 0.5ZM71.39-35L100.89-35 101.4-22.45 100.44-22.45Q98.25-29.1 96.55-31.53 94.84-33.95 91.64-33.95L91.64-33.95 91.05-33.95 91.05-1.05 95.3-1.05 95.3 0 77.05 0 77.05-1.05 81.3-1.05 81.3-33.95 80.64-33.95Q77.44-33.95 75.69-31.43 73.94-28.9 71.84-22.45L71.84-22.45 70.89-22.45 71.39-35ZM121.29-0.95L124.84-0.95 121.19-11.75 111.29-11.75 107.44-0.95 111.19-0.95 111.19 0 103.54 0 103.54-0.95 105.89-0.95 118.64-35.3 122.74-35.3 135.34-0.95 137.64-0.95 137.64 0 121.29 0 121.29-0.95ZM120.79-12.85L116.44-25.95 111.74-12.85 120.79-12.85ZM144.51 0.5Q142.34 0.5 141.26-0.78 140.19-2.05 140.19-3.88 140.19-5.7 141.31-6.95 142.44-8.2 144.49-8.2 146.54-8.2 147.74-7.15 148.94-6.1 148.94-4 148.94-1.9 147.81-0.7 146.69 0.5 144.51 0.5ZM169.24-0.95L172.79-0.95 169.14-11.75 159.24-11.75 155.39-0.95 159.14-0.95 159.14 0 151.49 0 151.49-0.95 153.84-0.95 166.59-35.3 170.69-35.3 183.29-0.95 185.59-0.95 185.59 0 169.24 0 169.24-0.95ZM168.74-12.85L164.39-25.95 159.69-12.85 168.74-12.85ZM187.13-34.05L187.13-35 202.38-35 202.38-34.05 199.63-34.05 199.63-0.95 202.38-0.95 202.38 0 187.13 0 187.13-0.95 189.88-0.95 189.88-34.05 187.13-34.05Z" fill="black"></path></g></svg></g></svg></g><g transform="matrix(1,0,0,1,163.310208,90.66144393876543)"><svg viewBox="0 0 232.209792 16.200683162790696" height="16.200683162790696" width="232.209792"><g transform="matrix(1,0,0,1,0,0)"><svg width="232.209792" viewBox="1.75 -36 644.94 45" height="16.200683162790696" data-palette-color="url(#442dad4b-711d-4597-acc9-62f2b826ba9a)"><path d="M9.25-8.25L9.25-8.25Q9.25-3.5 15-3.5L15-3.5 22-3.5 22-13 15-13Q9.25-13 9.25-8.25ZM15-16.5L22-16.5Q22-20.1 20.13-21.8 18.25-23.5 15.25-23.5L15.25-23.5Q13-23.5 10.85-22.83 8.7-22.15 7-21L7-21 5.25-24Q6.35-24.75 7.68-25.3 9-25.85 10.4-26.23 11.8-26.6 13.18-26.8 14.55-27 15.75-27L15.75-27Q18.95-27 21.4-26.25 23.85-25.5 25.55-24.1 27.25-22.7 28.13-20.78 29-18.85 29-16.5L29-16.5 29 0 15 0Q8.2 0 4.98-2.05 1.75-4.1 1.75-8.25L1.75-8.25Q1.75-12.4 4.98-14.45 8.2-16.5 15-16.5L15-16.5ZM42.75-35L42.75 0 35.75 0 35.75-35 42.75-35ZM56.75-35L56.75 0 49.75 0 49.75-35 56.75-35ZM83.49-9.5L83.49-22.5 78.74-22.5 78.74-26 83.49-26 83.49-34 90.49-34 90.49-26 98.24-26 98.24-22.5 90.49-22.5 90.49-9.5Q90.49-7.6 90.92-6.28 91.34-4.95 92.07-4.13 92.79-3.3 93.74-2.9 94.69-2.5 95.74-2.5L95.74-2.5Q97.24-2.5 98.64-2.98 100.04-3.45 100.99-4L100.99-4 102.49-0.75Q100.99 0 99.07 0.5 97.14 1 95.24 1L95.24 1Q89.59 1 86.54-1.8 83.49-4.6 83.49-9.5L83.49-9.5ZM118.99-2.25L118.99-2.25Q120.59-2.25 121.99-2.85 123.39-3.45 124.44-4.73 125.49-6 126.11-8.05 126.74-10.1 126.74-13L126.74-13Q126.74-15.9 126.11-17.95 125.49-20 124.44-21.28 123.39-22.55 121.99-23.15 120.59-23.75 118.99-23.75L118.99-23.75Q117.39-23.75 115.99-23.15 114.59-22.55 113.54-21.28 112.49-20 111.86-17.95 111.24-15.9 111.24-13L111.24-13Q111.24-10.1 111.86-8.05 112.49-6 113.54-4.73 114.59-3.45 115.99-2.85 117.39-2.25 118.99-2.25ZM118.99-27L118.99-27Q122.34-27 125.16-26.08 127.99-25.15 129.99-23.38 131.99-21.6 133.11-18.98 134.24-16.35 134.24-13L134.24-13Q134.24-9.6 133.11-7 131.99-4.4 129.99-2.63 127.99-0.85 125.16 0.08 122.34 1 118.99 1L118.99 1Q115.59 1 112.79 0.08 109.99-0.85 107.99-2.63 105.99-4.4 104.86-7 103.74-9.6 103.74-13L103.74-13Q103.74-16.35 104.86-18.98 105.99-21.6 107.99-23.38 109.99-25.15 112.79-26.08 115.59-27 118.99-27ZM153.99-2.25L153.99-2.25Q155.59-2.25 156.99-2.85 158.39-3.45 159.44-4.73 160.49-6 161.11-8.05 161.74-10.1 161.74-13L161.74-13Q161.74-15.9 161.11-17.95 160.49-20 159.44-21.28 158.39-22.55 156.99-23.15 155.59-23.75 153.99-23.75L153.99-23.75Q152.39-23.75 150.99-23.15 149.59-22.55 148.54-21.28 147.49-20 146.86-17.95 146.24-15.9 146.24-13L146.24-13Q146.24-10.1 146.86-8.05 147.49-6 148.54-4.73 149.59-3.45 150.99-2.85 152.39-2.25 153.99-2.25ZM153.99-27L153.99-27Q157.34-27 160.16-26.08 162.99-25.15 164.99-23.38 166.99-21.6 168.11-18.98 169.24-16.35 169.24-13L169.24-13Q169.24-9.6 168.11-7 166.99-4.4 164.99-2.63 162.99-0.85 160.16 0.08 157.34 1 153.99 1L153.99 1Q150.59 1 147.79 0.08 144.99-0.85 142.99-2.63 140.99-4.4 139.86-7 138.74-9.6 138.74-13L138.74-13Q138.74-16.35 139.86-18.98 140.99-21.6 142.99-23.38 144.99-25.15 147.79-26.08 150.59-27 153.99-27ZM181.98-35L181.98 0 174.98 0 174.98-35 181.98-35ZM194.98-20.5L194.98-20.5Q194.98-19.35 196.01-18.4 197.03-17.45 199.48-16.75L199.48-16.75 207.23-14.5Q210.83-13.45 212.78-11.65 214.73-9.85 214.73-7L214.73-7Q214.73-5.2 213.98-3.73 213.23-2.25 211.53-1.2 209.83-0.15 207.13 0.43 204.43 1 200.48 1L200.48 1Q198.43 1 196.46 0.7 194.48 0.4 192.71-0.13 190.93-0.65 189.48-1.33 188.03-2 186.98-2.75L186.98-2.75 188.98-5.75Q191.08-4.45 193.91-3.48 196.73-2.5 200.48-2.5L200.48-2.5Q204.23-2.5 205.73-3.5 207.23-4.5 207.23-6L207.23-6Q207.23-7.15 206.18-8.08 205.13-9 202.48-9.75L202.48-9.75 194.73-12Q191.53-12.95 189.51-14.73 187.48-16.5 187.48-19.5L187.48-19.5Q187.48-21.1 188.21-22.48 188.93-23.85 190.48-24.85 192.03-25.85 194.43-26.43 196.83-27 200.23-27L200.23-27Q204.38-27 207.76-25.88 211.13-24.75 213.23-23.25L213.23-23.25 211.23-20.25Q209.18-21.55 206.58-22.53 203.98-23.5 200.23-23.5L200.23-23.5Q197.58-23.5 196.28-22.65 194.98-21.8 194.98-20.5ZM244.48-25.5L244.48 0 237.48 0 237.48-25.5 244.48-25.5ZM244.73-32.25L244.73-32.25Q244.73-30.75 243.7-29.63 242.68-28.5 240.98-28.5L240.98-28.5Q239.28-28.5 238.25-29.63 237.23-30.75 237.23-32.25L237.23-32.25Q237.23-33.75 238.25-34.88 239.28-36 240.98-36L240.98-36Q242.63-36 243.68-34.88 244.73-33.75 244.73-32.25ZM279.22-15.75L279.22 0 272.22 0 272.22-15.75Q272.22-19.35 270.42-20.93 268.62-22.5 265.22-22.5L265.22-22.5 258.72-22.5 258.72 0 251.72 0 251.72-26 265.22-26Q272.37-26 275.8-23.43 279.22-20.85 279.22-15.75L279.22-15.75ZM317.47-2.25L317.47-2.25Q319.07-2.25 320.47-2.85 321.87-3.45 322.92-4.73 323.97-6 324.59-8.05 325.22-10.1 325.22-13L325.22-13Q325.22-15.9 324.59-17.95 323.97-20 322.92-21.28 321.87-22.55 320.47-23.15 319.07-23.75 317.47-23.75L317.47-23.75Q315.87-23.75 314.47-23.15 313.07-22.55 312.02-21.28 310.97-20 310.34-17.95 309.72-15.9 309.72-13L309.72-13Q309.72-10.1 310.34-8.05 310.97-6 312.02-4.73 313.07-3.45 314.47-2.85 315.87-2.25 317.47-2.25ZM317.47-27L317.47-27Q320.82-27 323.64-26.08 326.47-25.15 328.47-23.38 330.47-21.6 331.59-18.98 332.72-16.35 332.72-13L332.72-13Q332.72-9.6 331.59-7 330.47-4.4 328.47-2.63 326.47-0.85 323.64 0.08 320.82 1 317.47 1L317.47 1Q314.07 1 311.27 0.08 308.47-0.85 306.47-2.63 304.47-4.4 303.34-7 302.22-9.6 302.22-13L302.22-13Q302.22-16.35 303.34-18.98 304.47-21.6 306.47-23.38 308.47-25.15 311.27-26.08 314.07-27 317.47-27ZM365.97-15.75L365.97 0 358.97 0 358.97-15.75Q358.97-19.35 357.17-20.93 355.37-22.5 351.97-22.5L351.97-22.5 345.47-22.5 345.47 0 338.47 0 338.47-26 351.97-26Q359.12-26 362.54-23.43 365.97-20.85 365.97-15.75L365.97-15.75ZM387.71-2.5L387.71-2.5Q390.16-2.5 392.29-3.35 394.41-4.2 396.46-5.75L396.46-5.75 398.46-2.75Q397.51-1.9 396.24-1.2 394.96-0.5 393.49-0.03 392.01 0.45 390.41 0.73 388.81 1 387.21 1L387.21 1Q383.66 1 380.74 0.08 377.81-0.85 375.76-2.63 373.71-4.4 372.59-7 371.46-9.6 371.46-13L371.46-13Q371.46-16.35 372.54-18.98 373.61-21.6 375.54-23.38 377.46-25.15 380.11-26.08 382.76-27 385.96-27L385.96-27Q388.96-27 391.61-26.1 394.26-25.2 396.21-23.48 398.16-21.75 399.31-19.3 400.46-16.85 400.46-13.75L400.46-13.75 400.46-10.25 379.11-10.25Q379.71-6.1 381.99-4.3 384.26-2.5 387.71-2.5ZM385.96-23.75L385.96-23.75Q384.51-23.75 383.26-23.2 382.01-22.65 381.09-21.45 380.16-20.25 379.59-18.35 379.01-16.45 378.96-13.75L378.96-13.75 392.96-13.75Q392.96-16.35 392.36-18.25 391.76-20.15 390.79-21.38 389.81-22.6 388.54-23.18 387.26-23.75 385.96-23.75ZM436.96-22.5L430.71-22.5 430.71-3.5 436.96-3.5Q438.66-3.5 440.08-4.03 441.51-4.55 442.53-5.7 443.56-6.85 444.13-8.65 444.71-10.45 444.71-13L444.71-13Q444.71-15.55 444.13-17.35 443.56-19.15 442.53-20.3 441.51-21.45 440.08-21.98 438.66-22.5 436.96-22.5L436.96-22.5ZM423.71-26L436.96-26Q440.41-26 443.23-25.1 446.06-24.2 448.06-22.5 450.06-20.8 451.13-18.4 452.21-16 452.21-13L452.21-13Q452.21-10 451.13-7.6 450.06-5.2 448.06-3.5 446.06-1.8 443.23-0.9 440.41 0 436.96 0L436.96 0 430.71 0 430.71 9 423.71 9 423.71-26ZM464.96-35L464.96 0 457.96 0 457.96-35 464.96-35ZM477.7-8.25L477.7-8.25Q477.7-3.5 483.45-3.5L483.45-3.5 490.45-3.5 490.45-13 483.45-13Q477.7-13 477.7-8.25ZM483.45-16.5L490.45-16.5Q490.45-20.1 488.58-21.8 486.7-23.5 483.7-23.5L483.7-23.5Q481.45-23.5 479.3-22.83 477.15-22.15 475.45-21L475.45-21 473.7-24Q474.8-24.75 476.13-25.3 477.45-25.85 478.85-26.23 480.25-26.6 481.63-26.8 483-27 484.2-27L484.2-27Q487.4-27 489.85-26.25 492.3-25.5 494-24.1 495.7-22.7 496.58-20.78 497.45-18.85 497.45-16.5L497.45-16.5 497.45 0 483.45 0Q476.65 0 473.43-2.05 470.2-4.1 470.2-8.25L470.2-8.25Q470.2-12.4 473.43-14.45 476.65-16.5 483.45-16.5L483.45-16.5ZM505.45-9.5L505.45-22.5 500.7-22.5 500.7-26 505.45-26 505.45-34 512.45-34 512.45-26 520.2-26 520.2-22.5 512.45-22.5 512.45-9.5Q512.45-7.6 512.88-6.28 513.3-4.95 514.03-4.13 514.75-3.3 515.7-2.9 516.65-2.5 517.7-2.5L517.7-2.5Q519.2-2.5 520.6-2.98 522-3.45 522.95-4L522.95-4 524.45-0.75Q522.95 0 521.03 0.5 519.1 1 517.2 1L517.2 1Q511.55 1 508.5-1.8 505.45-4.6 505.45-9.5L505.45-9.5ZM529.2-25L529.2-25.5Q529.2-30.4 532.25-33.2 535.3-36 540.95-36L540.95-36Q542.85-36 544.77-35.5 546.7-35 548.2-34.25L548.2-34.25 546.7-31Q545.75-31.55 544.35-32.02 542.95-32.5 541.45-32.5L541.45-32.5Q540.4-32.5 539.45-32.1 538.5-31.7 537.77-30.88 537.05-30.05 536.62-28.7 536.2-27.35 536.2-25.5L536.2-25.5 536.2-25 543.95-25 543.95-21.5 536.2-21.5 536.2 0 529.2 0 529.2-21.5 524.45-21.5 524.45-25 529.2-25ZM561.94-2.25L561.94-2.25Q563.54-2.25 564.94-2.85 566.34-3.45 567.39-4.73 568.44-6 569.07-8.05 569.69-10.1 569.69-13L569.69-13Q569.69-15.9 569.07-17.95 568.44-20 567.39-21.28 566.34-22.55 564.94-23.15 563.54-23.75 561.94-23.75L561.94-23.75Q560.34-23.75 558.94-23.15 557.54-22.55 556.49-21.28 555.44-20 554.82-17.95 554.19-15.9 554.19-13L554.19-13Q554.19-10.1 554.82-8.05 555.44-6 556.49-4.73 557.54-3.45 558.94-2.85 560.34-2.25 561.94-2.25ZM561.94-27L561.94-27Q565.29-27 568.12-26.08 570.94-25.15 572.94-23.38 574.94-21.6 576.07-18.98 577.19-16.35 577.19-13L577.19-13Q577.19-9.6 576.07-7 574.94-4.4 572.94-2.63 570.94-0.85 568.12 0.08 565.29 1 561.94 1L561.94 1Q558.54 1 555.74 0.08 552.94-0.85 550.94-2.63 548.94-4.4 547.82-7 546.69-9.6 546.69-13L546.69-13Q546.69-16.35 547.82-18.98 548.94-21.6 550.94-23.38 552.94-25.15 555.74-26.08 558.54-27 561.94-27ZM602.69-26L602.69-22.5 596.69-22.5Q593.29-22.5 591.49-20.68 589.69-18.85 589.69-15.25L589.69-15.25 589.69 0 582.69 0 582.69-15.25Q582.69-20.35 585.92-23.18 589.14-26 595.19-26L595.19-26 602.69-26ZM606.69 0L606.69-26 632.69-26Q639.84-26 643.26-23.43 646.69-20.85 646.69-15.75L646.69-15.75 646.69 0 639.69 0 639.69-15.75Q639.69-19.35 637.89-20.93 636.09-22.5 632.69-22.5L632.69-22.5 630.19-22.5 630.19 0 623.19 0 623.19-22.5 613.69-22.5 613.69 0 606.69 0Z" opacity="1" transform="matrix(1,0,0,1,0,0)" fill="black" class="slogan-text-1" id="SvgjsPath1516"></path></svg></g></svg></g></svg></g></svg></g><g transform="matrix(1,0,0,1,412.8352710992592,0)"><svg viewBox="0 0 177.6940022579084 147.68345965435057" height="147.68345965435057" width="177.6940022579084"><g><svg xmlns="http://www.w3.org/2000/svg" xmlns:xlink="http://www.w3.org/1999/xlink" version="1.1" x="0" y="0" viewBox="5 12.6 90 74.80000000000001" enable-background="new 0 0 100 100" xml:space="preserve" height="147.68345965435057" width="177.6940022579084" class="icon-icon-0" data-fill-palette-color="accent" id="SvgjsSvg1515"><g fill="black"><g fill="black"><path d="M28.7 40c6.2 3 9.8 3.8 13.4 8.3 0.9 1.1 1.3 0.8 1.1-0.2-1.8-8.2-9.6-20.5-21.5-26.1C26.9 28.9 21.6 36.5 28.7 40z" fill="black"></path><path d="M40.2 51.5c-4.8-6.9-16.9-15.1-30-15.6 7.5 4.4 5.6 13.4 13.5 13.9 6.9 0.4 10.5-0.3 15.5 2.4C40.5 52.8 40.8 52.3 40.2 51.5z" fill="black"></path><path d="M5 53.2c8.6 1.1 10.4 10.2 17.9 7.4 6.5-2.3 9.5-4.4 15.2-3.9 1.5 0.1 1.5-0.4 0.6-0.9C31.5 51.4 17.2 48.5 5 53.2z" fill="black"></path><path d="M7 71.2c8.3-2.3 13.5 5.3 19.4-0.2 5-4.7 7-7.8 12.5-9.6 1.4-0.5 1.2-1 0.2-1.1C30.8 59.1 16.4 62.1 7 71.2z" fill="black"></path><path d="M16.4 87.4c6.7-5.5 14.5-0.6 17.7-8 2.7-6.3 3.3-10 7.5-13.8 1.1-1 0.7-1.4-0.3-1.1C33.2 66.8 21.3 75.3 16.4 87.4z" fill="black"></path><path d="M58.4 65.2c3.1 7.8 12.9 18.6 25.5 22.2-6.2-6-2.3-14.4-9.9-16.7-6.6-2-10.3-2.1-14.6-5.9C58.3 63.8 58 64.2 58.4 65.2z" fill="black"></path><path d="M60.9 61c6.1 5.8 19.5 11.7 32.4 9.6-8.2-2.9-8-12.1-15.9-11.1-6.8 0.9-10.3 2.3-15.7 0.6C60.3 59.8 60.2 60.3 60.9 61z" fill="black"></path><path d="M95 51.6c-8.6 0.7-12.3-7.7-19-3.5-5.8 3.7-8.4 6.3-14 7.1-1.4 0.2-1.4 0.7-0.4 1C69.4 59 84.1 58.8 95 51.6z" fill="black"></path><path d="M88.7 33.6c-7.6 4.2-14.4-2-18.8 4.7-3.8 5.7-5 9.2-9.9 12.2-1.2 0.7-0.9 1.2 0.1 1.1C68.4 50.9 81.7 44.6 88.7 33.6z" fill="black"></path><path d="M75.4 19.7c-5.1 7-13.9 4.2-15.2 12.1-1.1 6.8-0.8 10.5-3.9 15.2-0.8 1.2-0.3 1.5 0.5 1C64.2 43.8 73.7 32.7 75.4 19.7z" fill="black"></path><path d="M57.5 12.6c-1.8 8.5-10.9 9.6-8.8 17.3 1.9 6.6 3.7 9.9 2.8 15.5-0.2 1.4 0.3 1.5 0.9 0.7C57.3 39.2 61.3 25.1 57.5 12.6z" fill="black"></path><path d="M38.2 13.6c1.9 8.5-5.9 13.3-0.7 19.4 4.4 5.3 7.5 7.4 9 12.9 0.4 1.4 0.9 1.3 1.1 0.3C49.2 37.8 46.9 23.4 38.2 13.6z" fill="black"></path></g><path d="M46.5 65.2c-0.1 1.9-0.1 4.1-0.1 6.6 0 1.8 0.3 4.4 0.7 6.9 1.4-0.5 3.1-0.7 4.7-0.6-0.2-2-0.2-4.1-0.3-6.2 0-2 0.1-4.1 0.3-6.2 2.6-1.2 4.5-4.3 4.7-8.2 0.2-4.9-2.6-9-6.4-9.2-3.7-0.1-6.9 3.7-7 8.7C42.9 60.6 44.3 63.7 46.5 65.2z" fill="black"></path></g></svg></g></svg></g></svg></g><defs><mask></mask></defs></svg><rect width="395.5199999999999" height="98.9142530232532" fill="black" stroke="none" visibility="hidden"></rect></g></mask></svg><rect width="395.5199999999999" height="98.9142530232532" fill="black" stroke="none" visibility="hidden"></rect></g></mask></svg><rect width="395.5199999999999" height="98.9142530232532" fill="black" stroke="none" visibility="hidden"></rect></g></mask><linearGradient x1="0" x2="1" y1="0.5" y2="0.5" id="16af2bcd-4816-4c07-80fa-8281bf4eab0e"><stop stop-color="#ffa62e" offset="0"></stop><stop stop-color="#f71b3d" offset="1"></stop></linearGradient><rect width="395.5199999999999" height="98.9142530232532" fill="url(#16af2bcd-4816-4c07-80fa-8281bf4eab0e)" mask="url(#c73c062a-f717-4095-b3a0-1a8c8d7b8f74)" data-fill-palette-color="accent"></rect></svg><rect width="395.5199999999999" height="98.9142530232532" fill="none" stroke="none" visibility="hidden"></rect></g></svg></g></svg>